<svg width="35" height="35" viewBox="0 0 35 35" fill="none" xmlns="http://www.w3.org/2000/svg">
<path d="M8.74999 2.1875H6.5625V4.375H8.74999V2.1875Z" fill="#FFF8E6"/>
<path d="M10.9375 2.1875H8.75V4.375H10.9375V2.1875Z" fill="#FFF8E6"/>
<path d="M6.56249 2.1875H4.375V4.375H6.56249V2.1875Z" fill="#FFF8E6"/>
<path d="M6.56249 4.375H4.375V6.56249H6.56249V4.375Z" fill="#FFF8E6"/>
<path d="M4.375 4.375H2.1875V6.56249H4.375V4.375Z" fill="#FFF8E6"/>
<path d="M4.375 6.5625H2.1875V8.74999H4.375V6.5625Z" fill="#FFF8E6"/>
<path d="M4.375 8.75H2.1875V10.9375H4.375V8.75Z" fill="#FFF8E6"/>
<path d="M35.0001 28.4375H32.8125V30.6249H35.0001V28.4375Z" fill="black"/>
<path d="M35.0001 26.25H32.8125V28.4376H35.0001V26.25Z" fill="black"/>
<path d="M35.0001 24.0625H32.8125V26.2499H35.0001V24.0625Z" fill="black"/>
<path d="M35.0001 21.875H32.8125V24.0626H35.0001V21.875Z" fill="black"/>
<path d="M35.0001 19.6875H32.8125V21.8749H35.0001V19.6875Z" fill="black"/>
<path d="M35.0001 17.5H32.8125V19.6876H35.0001V17.5Z" fill="black"/>
<path d="M35.0001 15.3125H32.8125V17.4999H35.0001V15.3125Z" fill="black"/>
<path d="M35.0001 13.125H32.8125V15.3125H35.0001V13.125Z" fill="black"/>
<path d="M35.0001 10.9375H32.8125V13.125H35.0001V10.9375Z" fill="black"/>
<path d="M35.0001 8.75H32.8125V10.9375H35.0001V8.75Z" fill="black"/>
<path d="M35.0001 6.5625H32.8125V8.74999H35.0001V6.5625Z" fill="black"/>
<path d="M35.0001 4.375H32.8125V6.56249H35.0001V4.375Z" fill="black"/>
<path d="M32.8126 30.625H30.625V32.8126H32.8126V30.625Z" fill="black"/>
<path d="M32.8126 28.4375H30.625V30.6249H32.8126V28.4375Z" fill="#FF9100"/>
<path d="M32.8126 26.25H30.625V28.4376H32.8126V26.25Z" fill="#FF9100"/>
<path d="M32.8126 24.0625H30.625V26.2499H32.8126V24.0625Z" fill="#FF9100"/>
<path d="M32.8126 21.875H30.625V24.0626H32.8126V21.875Z" fill="#FF9100"/>
<path d="M32.8126 19.6875H30.625V21.8749H32.8126V19.6875Z" fill="#FF9100"/>
<path d="M32.8126 17.5H30.625V19.6876H32.8126V17.5Z" fill="#FF9100"/>
<path d="M32.8126 15.3125H30.625V17.4999H32.8126V15.3125Z" fill="#FF9100"/>
<path d="M32.8126 13.125H30.625V15.3125H32.8126V13.125Z" fill="#FF9100"/>
<path d="M32.8126 10.9375H30.625V13.125H32.8126V10.9375Z" fill="#FF9100"/>
<path d="M32.8126 8.75H30.625V10.9375H32.8126V8.75Z" fill="#FF9100"/>
<path d="M32.8126 6.5625H30.625V8.74999H32.8126V6.5625Z" fill="#FF9100"/>
<path d="M32.8126 4.375H30.625V6.56249H32.8126V4.375Z" fill="#FF9100"/>
<path d="M32.8126 2.1875H30.625V4.375H32.8126V2.1875Z" fill="black"/>
<path d="M30.6249 32.8125H28.4375V35.0001H30.6249V32.8125Z" fill="black"/>
<path d="M30.6249 30.625H28.4375V32.8126H30.6249V30.625Z" fill="#FF9100"/>
<path d="M30.6249 28.4375H28.4375V30.6249H30.6249V28.4375Z" fill="#FFC010"/>
<path d="M30.6249 26.25H28.4375V28.4376H30.6249V26.25Z" fill="#FFC010"/>
<path d="M30.6249 24.0625H28.4375V26.2499H30.6249V24.0625Z" fill="#FFC010"/>
<path d="M30.6249 21.875H28.4375V24.0626H30.6249V21.875Z" fill="#FFC010"/>
<path d="M30.6249 19.6875H28.4375V21.8749H30.6249V19.6875Z" fill="#FFC010"/>
<path d="M30.6249 17.5H28.4375V19.6876H30.6249V17.5Z" fill="#FFC010"/>
<path d="M30.6249 15.3125H28.4375V17.4999H30.6249V15.3125Z" fill="#FFC010"/>
<path d="M30.6249 13.125H28.4375V15.3125H30.6249V13.125Z" fill="#FFC010"/>
<path d="M30.6249 10.9375H28.4375V13.125H30.6249V10.9375Z" fill="#FFC010"/>
<path d="M30.6249 8.75H28.4375V10.9375H30.6249V8.75Z" fill="#FFC010"/>
<path d="M30.6249 6.5625H28.4375V8.74999H30.6249V6.5625Z" fill="#FFC010"/>
<path d="M30.6249 4.375H28.4375V6.56249H30.6249V4.375Z" fill="#FFC010"/>
<path d="M30.6249 2.1875H28.4375V4.375H30.6249V2.1875Z" fill="#FF9100"/>
<path d="M30.6249 0H28.4375V2.18749H30.6249V0Z" fill="black"/>
<path d="M28.4376 32.8125H26.25V35.0001H28.4376V32.8125Z" fill="black"/>
<path d="M28.4376 30.625H26.25V32.8126H28.4376V30.625Z" fill="#FF9100"/>
<path d="M28.4376 28.4375H26.25V30.6249H28.4376V28.4375Z" fill="#FFC010"/>
<path d="M28.4376 26.25H26.25V28.4376H28.4376V26.25Z" fill="#FFC010"/>
<path d="M28.4376 24.0625H26.25V26.2499H28.4376V24.0625Z" fill="#FFC010"/>
<path d="M28.4376 21.875H26.25V24.0626H28.4376V21.875Z" fill="#FFC010"/>
<path d="M28.4376 19.6875H26.25V21.8749H28.4376V19.6875Z" fill="#FFC010"/>
<path d="M28.4376 17.5H26.25V19.6876H28.4376V17.5Z" fill="#FFC010"/>
<path d="M28.4376 15.3125H26.25V17.4999H28.4376V15.3125Z" fill="#FFC010"/>
<path d="M28.4376 13.125H26.25V15.3125H28.4376V13.125Z" fill="black"/>
<path d="M28.4376 10.9375H26.25V13.125H28.4376V10.9375Z" fill="black"/>
<path d="M28.4376 8.75H26.25V10.9375H28.4376V8.75Z" fill="black"/>
<path d="M28.4376 6.5625H26.25V8.74999H28.4376V6.5625Z" fill="#FFC010"/>
<path d="M28.4376 4.375H26.25V6.56249H28.4376V4.375Z" fill="#FFC010"/>
<path d="M28.4376 2.1875H26.25V4.375H28.4376V2.1875Z" fill="#FF9100"/>
<path d="M28.4376 0H26.25V2.18749H28.4376V0Z" fill="black"/>
<path d="M26.2499 32.8125H24.0625V35.0001H26.2499V32.8125Z" fill="black"/>
<path d="M26.2499 30.625H24.0625V32.8126H26.2499V30.625Z" fill="#FF9100"/>
<path d="M26.2499 28.4375H24.0625V30.6249H26.2499V28.4375Z" fill="#FFC010"/>
<path d="M26.2499 26.25H24.0625V28.4376H26.2499V26.25Z" fill="#FFC010"/>
<path d="M26.2499 24.0625H24.0625V26.2499H26.2499V24.0625Z" fill="#FFC010"/>
<path d="M26.2499 21.875H24.0625V24.0626H26.2499V21.875Z" fill="#FFC010"/>
<path d="M26.2499 19.6875H24.0625V21.8749H26.2499V19.6875Z" fill="#FFC010"/>
<path d="M26.2499 17.5H24.0625V19.6876H26.2499V17.5Z" fill="#FFC010"/>
<path d="M26.2499 15.3125H24.0625V17.4999H26.2499V15.3125Z" fill="black"/>
<path d="M26.2499 6.5625H24.0625V8.74999H26.2499V6.5625Z" fill="black"/>
<path d="M26.2499 4.375H24.0625V6.56249H26.2499V4.375Z" fill="#FFC010"/>
<path d="M26.2499 2.1875H24.0625V4.375H26.2499V2.1875Z" fill="#FF9100"/>
<path d="M26.2499 0H24.0625V2.18749H26.2499V0Z" fill="black"/>
<path d="M24.0626 32.8125H21.875V35.0001H24.0626V32.8125Z" fill="black"/>
<path d="M24.0626 30.625H21.875V32.8126H24.0626V30.625Z" fill="#FF9100"/>
<path d="M24.0626 28.4375H21.875V30.6249H24.0626V28.4375Z" fill="#FFC010"/>
<path d="M24.0626 26.25H21.875V28.4376H24.0626V26.25Z" fill="#FFC010"/>
<path d="M24.0626 24.0625H21.875V26.2499H24.0626V24.0625Z" fill="#FFC010"/>
<path d="M24.0626 21.875H21.875V24.0626H24.0626V21.875Z" fill="#FFC010"/>
<path d="M24.0626 19.6875H21.875V21.8749H24.0626V19.6875Z" fill="#FFC010"/>
<path d="M24.0626 17.5H21.875V19.6876H24.0626V17.5Z" fill="black"/>
<path d="M24.0626 4.375H21.875V6.56249H24.0626V4.375Z" fill="black"/>
<path d="M24.0626 2.1875H21.875V4.375H24.0626V2.1875Z" fill="#FF9100"/>
<path d="M24.0626 0H21.875V2.18749H24.0626V0Z" fill="black"/>
<path d="M21.8749 32.8125H19.6875V35.0001H21.8749V32.8125Z" fill="black"/>
<path d="M21.8749 30.625H19.6875V32.8126H21.8749V30.625Z" fill="#FF9100"/>
<path d="M21.8749 28.4375H19.6875V30.6249H21.8749V28.4375Z" fill="#FFC010"/>
<path d="M21.8749 26.25H19.6875V28.4376H21.8749V26.25Z" fill="#FFC010"/>
<path d="M21.8749 24.0625H19.6875V26.2499H21.8749V24.0625Z" fill="black"/>
<path d="M21.8749 21.875H19.6875V24.0626H21.8749V21.875Z" fill="black"/>
<path d="M21.8749 19.6875H19.6875V21.8749H21.8749V19.6875Z" fill="#FFC010"/>
<path d="M21.8749 17.5H19.6875V19.6876H21.8749V17.5Z" fill="black"/>
<path d="M21.8749 4.375H19.6875V6.56249H21.8749V4.375Z" fill="black"/>
<path d="M21.8749 2.1875H19.6875V4.375H21.8749V2.1875Z" fill="#FF9100"/>
<path d="M21.8749 0H19.6875V2.18749H21.8749V0Z" fill="black"/>
<path d="M19.6876 32.8125H17.5V35.0001H19.6876V32.8125Z" fill="black"/>
<path d="M19.6876 30.625H17.5V32.8126H19.6876V30.625Z" fill="#FF9100"/>
<path d="M19.6876 28.4375H17.5V30.6249H19.6876V28.4375Z" fill="#FFC010"/>
<path d="M19.6876 26.25H17.5V28.4376H19.6876V26.25Z" fill="black"/>
<path d="M19.6876 19.6875H17.5V21.8749H19.6876V19.6875Z" fill="black"/>
<path d="M19.6876 13.125H17.5V15.3125H19.6876V13.125Z" fill="black"/>
<path d="M19.6876 10.9375H17.5V13.125H19.6876V10.9375Z" fill="black"/>
<path d="M19.6876 4.375H17.5V6.56249H19.6876V4.375Z" fill="black"/>
<path d="M19.6876 2.1875H17.5V4.375H19.6876V2.1875Z" fill="#FF9100"/>
<path d="M19.6876 0H17.5V2.18749H19.6876V0Z" fill="black"/>
<path d="M17.4999 32.8125H15.3125V35.0001H17.4999V32.8125Z" fill="black"/>
<path d="M17.4999 30.625H15.3125V32.8126H17.4999V30.625Z" fill="#FF9100"/>
<path d="M17.4999 28.4375H15.3125V30.6249H17.4999V28.4375Z" fill="#FFC010"/>
<path d="M17.4999 26.25H15.3125V28.4376H17.4999V26.25Z" fill="black"/>
<path d="M17.4999 19.6875H15.3125V21.8749H17.4999V19.6875Z" fill="black"/>
<path d="M17.4999 13.125H15.3125V15.3125H17.4999V13.125Z" fill="black"/>
<path d="M17.4999 10.9375H15.3125V13.125H17.4999V10.9375Z" fill="black"/>
<path d="M17.4999 4.375H15.3125V6.56249H17.4999V4.375Z" fill="black"/>
<path d="M17.4999 2.1875H15.3125V4.375H17.4999V2.1875Z" fill="#FF9100"/>
<path d="M17.4999 0H15.3125V2.18749H17.4999V0Z" fill="black"/>
<path d="M15.3125 32.8125H13.125V35.0001H15.3125V32.8125Z" fill="black"/>
<path d="M15.3125 30.625H13.125V32.8126H15.3125V30.625Z" fill="#FF9100"/>
<path d="M15.3125 28.4375H13.125V30.6249H15.3125V28.4375Z" fill="#FFC010"/>
<path d="M15.3125 26.25H13.125V28.4376H15.3125V26.25Z" fill="black"/>
<path d="M15.3125 19.6875H13.125V21.8749H15.3125V19.6875Z" fill="black"/>
<path d="M15.3125 13.125H13.125V15.3125H15.3125V13.125Z" fill="black"/>
<path d="M15.3125 10.9375H13.125V13.125H15.3125V10.9375Z" fill="black"/>
<path d="M15.3125 4.375H13.125V6.56249H15.3125V4.375Z" fill="black"/>
<path d="M15.3125 2.1875H13.125V4.375H15.3125V2.1875Z" fill="#FF9100"/>
<path d="M15.3125 0H13.125V2.18749H15.3125V0Z" fill="black"/>
<path d="M13.125 32.8125H10.9375V35.0001H13.125V32.8125Z" fill="black"/>
<path d="M13.125 30.625H10.9375V32.8126H13.125V30.625Z" fill="#FF9100"/>
<path d="M13.125 28.4375H10.9375V30.6249H13.125V28.4375Z" fill="#FFC010"/>
<path d="M13.125 26.25H10.9375V28.4376H13.125V26.25Z" fill="#FFC010"/>
<path d="M13.125 24.0625H10.9375V26.2499H13.125V24.0625Z" fill="black"/>
<path d="M13.125 21.875H10.9375V24.0626H13.125V21.875Z" fill="black"/>
<path d="M13.125 19.6875H10.9375V21.8749H13.125V19.6875Z" fill="#FFC010"/>
<path d="M13.125 17.5H10.9375V19.6876H13.125V17.5Z" fill="black"/>
<path d="M13.125 15.3125H10.9375V17.4999H13.125V15.3125Z" fill="black"/>
<path d="M13.125 13.125H10.9375V15.3125H13.125V13.125Z" fill="black"/>
<path d="M13.125 4.375H10.9375V6.56249H13.125V4.375Z" fill="black"/>
<path d="M13.125 2.1875H10.9375V4.375H13.125V2.1875Z" fill="#FF9100"/>
<path d="M13.125 0H10.9375V2.18749H13.125V0Z" fill="black"/>
<path d="M10.9375 32.8125H8.75V35.0001H10.9375V32.8125Z" fill="black"/>
<path d="M10.9375 30.625H8.75V32.8126H10.9375V30.625Z" fill="#FF9100"/>
<path d="M10.9375 28.4375H8.75V30.6249H10.9375V28.4375Z" fill="#FFC010"/>
<path d="M10.9375 26.25H8.75V28.4376H10.9375V26.25Z" fill="#FFC010"/>
<path d="M10.9375 24.0625H8.75V26.2499H10.9375V24.0625Z" fill="#FFC010"/>
<path d="M10.9375 21.875H8.75V24.0626H10.9375V21.875Z" fill="#FFC010"/>
<path d="M10.9375 19.6875H8.75V21.8749H10.9375V19.6875Z" fill="#FFC010"/>
<path d="M10.9375 17.5H8.75V19.6876H10.9375V17.5Z" fill="#FFC010"/>
<path d="M10.9375 15.3125H8.75V17.4999H10.9375V15.3125Z" fill="#FFC010"/>
<path d="M10.9375 13.125H8.75V15.3125H10.9375V13.125Z" fill="black"/>
<path d="M10.9375 4.375H8.75V6.56249H10.9375V4.375Z" fill="black"/>
<path d="M10.9375 0H8.75V2.18749H10.9375V0Z" fill="black"/>
<path d="M8.74999 32.8125H6.5625V35.0001H8.74999V32.8125Z" fill="black"/>
<path d="M8.74999 30.625H6.5625V32.8126H8.74999V30.625Z" fill="#FF9100"/>
<path d="M8.74999 28.4375H6.5625V30.6249H8.74999V28.4375Z" fill="#FFC010"/>
<path d="M8.74999 26.25H6.5625V28.4376H8.74999V26.25Z" fill="#FFC010"/>
<path d="M8.74999 24.0625H6.5625V26.2499H8.74999V24.0625Z" fill="#FFC010"/>
<path d="M8.74999 21.875H6.5625V24.0626H8.74999V21.875Z" fill="#FFC010"/>
<path d="M8.74999 19.6875H6.5625V21.8749H8.74999V19.6875Z" fill="#FFC010"/>
<path d="M8.74999 17.5H6.5625V19.6876H8.74999V17.5Z" fill="#FFC010"/>
<path d="M8.74999 15.3125H6.5625V17.4999H8.74999V15.3125Z" fill="#FFC010"/>
<path d="M8.74999 13.125H6.5625V15.3125H8.74999V13.125Z" fill="black"/>
<path d="M8.74999 6.5625H6.5625V8.74999H8.74999V6.5625Z" fill="black"/>
<path d="M8.74999 4.375H6.5625V6.56249H8.74999V4.375Z" fill="#FFC010"/>
<path d="M8.74999 0H6.5625V2.18749H8.74999V0Z" fill="black"/>
<path d="M6.56249 32.8125H4.375V35.0001H6.56249V32.8125Z" fill="black"/>
<path d="M6.56249 30.625H4.375V32.8126H6.56249V30.625Z" fill="#FF9100"/>
<path d="M6.56249 28.4375H4.375V30.6249H6.56249V28.4375Z" fill="#FFC010"/>
<path d="M6.56249 26.25H4.375V28.4376H6.56249V26.25Z" fill="#FFC010"/>
<path d="M6.56249 24.0625H4.375V26.2499H6.56249V24.0625Z" fill="#FFC010"/>
<path d="M6.56249 21.875H4.375V24.0626H6.56249V21.875Z" fill="#FFC010"/>
<path d="M6.56249 19.6875H4.375V21.8749H6.56249V19.6875Z" fill="#FFC010"/>
<path d="M6.56249 17.5H4.375V19.6876H6.56249V17.5Z" fill="#FFC010"/>
<path d="M6.56249 15.3125H4.375V17.4999H6.56249V15.3125Z" fill="#FFC010"/>
<path d="M6.56249 13.125H4.375V15.3125H6.56249V13.125Z" fill="#FFC010"/>
<path d="M6.56249 10.9375H4.375V13.125H6.56249V10.9375Z" fill="black"/>
<path d="M6.56249 8.75H4.375V10.9375H6.56249V8.75Z" fill="black"/>
<path d="M6.56249 6.5625H4.375V8.74999H6.56249V6.5625Z" fill="#FFC010"/>
<path d="M6.56249 0H4.375V2.18749H6.56249V0Z" fill="black"/>
<path d="M4.375 30.625H2.1875V32.8126H4.375V30.625Z" fill="black"/>
<path d="M4.375 28.4375H2.1875V30.6249H4.375V28.4375Z" fill="#FF9100"/>
<path d="M4.375 26.25H2.1875V28.4376H4.375V26.25Z" fill="#FF9100"/>
<path d="M4.375 24.0625H2.1875V26.2499H4.375V24.0625Z" fill="#FF9100"/>
<path d="M4.375 21.875H2.1875V24.0626H4.375V21.875Z" fill="#FF9100"/>
<path d="M4.375 19.6875H2.1875V21.8749H4.375V19.6875Z" fill="#FF9100"/>
<path d="M4.375 17.5H2.1875V19.6876H4.375V17.5Z" fill="#FF9100"/>
<path d="M4.375 15.3125H2.1875V17.4999H4.375V15.3125Z" fill="#FF9100"/>
<path d="M4.375 13.125H2.1875V15.3125H4.375V13.125Z" fill="#FF9100"/>
<path d="M4.375 10.9375H2.1875V13.125H4.375V10.9375Z" fill="#FF9100"/>
<path d="M4.375 2.1875H2.1875V4.375H4.375V2.1875Z" fill="black"/>
<path d="M2.18749 28.4375H0V30.6249H2.18749V28.4375Z" fill="black"/>
<path d="M2.18749 26.25H0V28.4376H2.18749V26.25Z" fill="black"/>
<path d="M2.18749 24.0625H0V26.2499H2.18749V24.0625Z" fill="black"/>
<path d="M2.18749 21.875H0V24.0626H2.18749V21.875Z" fill="black"/>
<path d="M2.18749 19.6875H0V21.8749H2.18749V19.6875Z" fill="black"/>
<path d="M2.18749 17.5H0V19.6876H2.18749V17.5Z" fill="black"/>
<path d="M2.18749 15.3125H0V17.4999H2.18749V15.3125Z" fill="black"/>
<path d="M2.18749 13.125H0V15.3125H2.18749V13.125Z" fill="black"/>
<path d="M2.18749 10.9375H0V13.125H2.18749V10.9375Z" fill="black"/>
<path d="M2.18749 8.75H0V10.9375H2.18749V8.75Z" fill="black"/>
<path d="M2.18749 6.5625H0V8.74999H2.18749V6.5625Z" fill="black"/>
<path d="M2.18749 4.375H0V6.56249H2.18749V4.375Z" fill="black"/>
<rect x="8.75488" y="6.57153" width="15.3343" height="4.34122" fill="#FFF8E6"/>
<rect x="6.58105" y="8.74194" width="6.51183" height="4.34122" fill="#FFF8E6"/>
<rect x="19.7471" y="8.81274" width="6.51183" height="6.51183" fill="#FFF8E6"/>
<rect x="13.0928" y="15.3245" width="6.65187" height="4.34122" fill="#FFF8E6"/>
<rect x="13.0928" y="21.907" width="6.65187" height="4.34122" fill="#FFF8E6"/>
<rect x="19.6758" y="15.3245" width="4.34122" height="2.17061" fill="#FFF8E6"/>
</svg>
