<svg width="29" height="28" viewBox="0 0 29 28" fill="none" xmlns="http://www.w3.org/2000/svg">
<path d="M28.7902 0.00683594L0.931641 27.8804V0.00683594H28.7902Z" fill="#E1E1E1"/>
<path d="M28.7902 0.00683594V27.8804H0.931641L28.7902 0.00683594Z" fill="#191919"/>
<path d="M27.3894 1.41699H2.34961V26.4707H27.3894V1.41699Z" fill="#8C8C8C"/>
<path d="M27.3894 1.41699L2.34961 26.4707V1.41699H27.3894Z" fill="white"/>
<path d="M25.9809 2.83105H3.75195V25.0583H25.9809V2.83105Z" fill="#CE4429"/>
<path d="M19.9142 6.84668L21.9621 8.90043L16.9211 13.9448L21.9621 18.9901L19.9142 21.043L14.8649 15.9986L9.82378 21.0438L7.76758 18.9901L12.8169 13.9448L7.77588 8.91038L9.83208 6.85662L14.8649 11.8911L19.9142 6.84668Z" fill="black"/>
<path d="M14.8655 15.6002L9.82428 20.6438L8.16602 18.9889L13.2155 13.9445L8.17432 8.91L9.83258 7.25506L14.8655 12.2895L19.9148 7.24512L21.5648 8.90006L16.5237 13.9445L21.5648 18.9889L19.9148 20.6438L14.8655 15.6002Z" fill="white"/>
<path d="M9.83211 7.2533V6.85449L7.77588 8.90824L12.817 13.9427L7.76758 18.9879L8.16555 18.9871L13.215 13.9427L8.17384 8.90824L9.83211 7.2533Z" fill="#8C8C8C"/>
<path d="M14.8672 11.8911V12.2899L19.9165 7.24549V6.84668L14.8672 11.8911Z" fill="#8C8C8C"/>
<path d="M14.8672 15.9966V15.5986L19.9165 20.6422V21.041L14.8672 15.9966Z" fill="#8C8C8C"/>
<path d="M19.9145 21.043V20.6442L21.5645 18.9892L16.5234 13.9448L21.5645 8.90043L19.9145 7.24549V6.84668L21.9624 8.90043L16.9214 13.9448L21.9624 18.9901L19.9145 21.043Z" fill="#E3E3E5"/>
<path d="M14.8727 12.2878L9.83984 7.2533V6.85449L14.8727 11.889V12.2878Z" fill="#E3E3E5"/>
<path d="M14.865 15.5986L9.82382 20.6422L8.16555 18.9873L7.76758 18.9881L9.82382 21.0419L14.865 15.9966V15.5986Z" fill="#E3E3E5"/>
</svg>
