<svg width="29" height="28" viewBox="0 0 29 28" fill="none" xmlns="http://www.w3.org/2000/svg">
<path d="M28.7688 0.00683594L0.910156 27.8804V0.00683594H28.7688Z" fill="#E1E1E1"/>
<path d="M28.7688 0.00683594V27.8804H0.910156L28.7688 0.00683594Z" fill="#191919"/>
<path d="M27.3678 1.41699H2.32812V26.4707H27.3678V1.41699Z" fill="#8C8C8C"/>
<path d="M27.3678 1.41699L2.32812 26.4707V1.41699H27.3678Z" fill="white"/>
<path d="M25.9595 2.83105H3.73047V25.0583H25.9595V2.83105Z" fill="#C0C0C0"/>
<path d="M22.9803 5.48828H6.67969V21.7848H22.9803V5.48828Z" fill="black"/>
<path d="M22.6958 5.77148H6.95898V21.5033H22.6958V5.77148Z" fill="#C0C0C0"/>
<path d="M22.6958 5.77148H6.95898V8.80609H22.6958V5.77148Z" fill="black"/>
<path d="M22.4094 6.05371H7.23633V8.5245H22.4094V6.05371Z" fill="black"/>
<path d="M22.6958 5.77148L22.4139 6.0534H7.24096V8.52419L6.95898 8.80609V5.77148H22.6958V5.77148Z" fill="#E1E1E1"/>
<path d="M22.4139 8.52419H7.24096L6.95898 8.80609H22.6958V5.77148L22.4139 6.0534V8.52419V8.52419Z" fill="#E3E3E5"/>
</svg>
