<svg width="29" height="28" viewBox="0 0 29 28" fill="none" xmlns="http://www.w3.org/2000/svg">
<path d="M28.7494 0.00683594V27.8804H0.890625L28.7494 0.00683594Z" fill="#191919"/>
<path d="M28.7494 0.0078125L0.890625 27.8814V0.0078125H28.7494Z" fill="#E1E1E1"/>
<path d="M27.3404 1.41797H2.30078V26.4717H27.3404V1.41797Z" fill="#8C8C8C"/>
<path d="M27.3404 1.41797L2.30078 26.4717V1.41797H27.3404Z" fill="white"/>
<path d="M25.9398 2.83203H3.71094V25.0593H25.9398V2.83203Z" fill="#C0C0C0"/>
<path d="M23.4153 19.5908H6.24414V22.4953H23.4153V19.5908Z" fill="black"/>
<path d="M23.1308 19.873H6.52344V22.2129H23.1308V19.873Z" fill="black"/>
<path d="M6.24414 19.5908H23.4153L23.1334 19.8736H6.52602V22.2134L6.24414 22.4953V19.5908V19.5908Z" fill="#8C8C8C"/>
<path d="M6.24414 22.4953H23.4153V19.5908L23.1334 19.8736V22.2134H6.52602L6.24414 22.4953V22.4953Z" fill="#E3E3E5"/>
</svg>
