<svg width="48" height="48" viewBox="0 0 48 48" fill="none" xmlns="http://www.w3.org/2000/svg">
<path d="M38.2151 0H42.9902V4.77415H38.2151V0ZM42.9902 0H47.7682V4.77415H42.9902V0ZM0 4.77415H4.77605V9.55211H0V4.77415ZM4.77605 4.77415H9.55305V9.55211H4.77605V4.77415ZM9.55305 4.77415H14.331V9.55211H9.55305V4.77415ZM14.331 4.77415H19.1061V9.55211H14.331V4.77415ZM19.1061 4.77415H23.8841V9.55211H19.1061V4.77415ZM23.8841 4.77415H28.6601V9.55211H23.8841V4.77415ZM28.6601 4.77415H33.4371V9.55211H28.6601V4.77415ZM33.4371 4.77415H38.2151V9.55211H33.4371V4.77415ZM38.2151 4.77415H42.9902V9.55211H38.2151V4.77415ZM42.9902 4.77415H47.7682V9.55211H42.9902V4.77415ZM0 9.55211H4.77605V14.3291H0V9.55211ZM4.77605 9.55211H9.55305V14.3291H4.77605V9.55211ZM14.331 9.55211H19.1061V14.3291H14.331V9.55211ZM23.8841 9.55211H28.6601V14.3291H23.8841V9.55211ZM33.4371 9.55211H38.2151V14.3291H33.4371V9.55211ZM38.2151 9.55211H42.9902V14.3291H38.2151V9.55211ZM0 14.3291H4.77605V19.1071H0V14.3291ZM9.55305 14.3291H14.331V19.1071H9.55305V14.3291ZM19.1061 14.3291H23.8841V19.1071H19.1061V14.3291ZM28.6601 14.3291H33.4371V19.1071H28.6601V14.3291ZM38.2151 14.3291H42.9902V19.1071H38.2151V14.3291ZM0 19.1071H4.77605V23.8841H0V19.1071ZM4.77605 19.1071H9.55305V23.8841H4.77605V19.1071ZM14.331 19.1071H19.1061V23.8841H14.331V19.1071ZM23.8841 19.1071H28.6601V23.8841H23.8841V19.1071ZM33.4371 19.1071H38.2151V23.8841H33.4371V19.1071ZM38.2151 19.1071H42.9902V23.8841H38.2151V19.1071ZM4.77605 23.8841H9.55305V28.6582H4.77605V23.8841ZM9.55305 23.8841H14.331V28.6582H9.55305V23.8841ZM19.1061 23.8841H23.8841V28.6582H19.1061V23.8841ZM28.6601 23.8841H33.4371V28.6582H28.6601V23.8841ZM38.2151 23.8841H42.9902V28.6582H38.2151V23.8841ZM9.55305 28.6582H14.331V33.4352H9.55305V28.6582ZM14.331 28.6582H19.1061V33.4352H14.331V28.6582ZM19.1061 28.6582H23.8841V33.4352H19.1061V28.6582ZM23.8841 28.6582H28.6601V33.4352H23.8841V28.6582ZM28.6601 28.6582H33.4371V33.4352H28.6601V28.6582ZM33.4371 28.6582H38.2151V33.4352H33.4371V28.6582ZM38.2151 28.6582H42.9902V33.4352H38.2151V28.6582ZM9.55305 38.2132H14.331V42.9912H9.55305V38.2132ZM14.331 38.2132H19.1061V42.9912H14.331V38.2132ZM28.6601 38.2132H33.4371V42.9912H28.6601V38.2132ZM33.4371 38.2132H38.2151V42.9912H33.4371V38.2132ZM9.55305 42.9912H14.331V47.7663H9.55305V42.9912ZM14.331 42.9912H19.1061V47.7663H14.331V42.9912ZM28.6601 42.9912H33.4371V47.7663H28.6601V42.9912ZM33.4371 42.9912H38.2151V47.7663H33.4371V42.9912Z" fill="white"/>
<rect x="38" width="10" height="10" fill="#FFC010"/>
<rect x="29" y="38" width="10" height="10" fill="#FF9100"/>
<rect x="9" y="38" width="10" height="10" fill="#FF9100"/>
</svg>
