<svg width="38" height="35" viewBox="0 0 38 35" fill="none" xmlns="http://www.w3.org/2000/svg">
<path d="M5.06718 2.5127H32.9303V4.99996H35.4774V22.4874H32.9303V24.9994H27.8621V32.4869H25.3407V30.0003H22.8194V27.4872H20.2723V24.9994H5.06718V22.4874H2.5459V4.99996H5.06718C5.06718 4.99996 5.06718 2.32154 5.06718 2.5127V2.5127Z" fill="white"/>
<path d="M27.8632 17.5127H25.3418V19.9997H27.8632V17.5127Z" fill="#04090D"/>
<path d="M20.2728 17.5127H17.7515V19.9997H20.2728V17.5127Z" fill="#04090D"/>
<path d="M12.6837 17.5127H10.1367V19.9997H12.6837V17.5127Z" fill="#04090D"/>
<path d="M37.9998 19.9995H35.4785V22.4874H37.9998V19.9995Z" fill="#04090D"/>
<path d="M37.9998 17.5127H35.4785V19.9997H37.9998V17.5127Z" fill="#04090D"/>
<path d="M37.9998 14.9995H35.4785V17.5121H37.9998V14.9995Z" fill="#04090D"/>
<path d="M37.9998 12.5127H35.4785V15.0001H37.9998V12.5127Z" fill="#04090D"/>
<path d="M37.9998 10H35.4785V12.5126H37.9998V10Z" fill="#04090D"/>
<path d="M37.9998 7.51221H35.4785V9.99959H37.9998V7.51221Z" fill="#04090D"/>
<path d="M37.9998 5H35.4785V7.5126H37.9998V5Z" fill="#04090D"/>
<path d="M35.4777 22.4873H32.9307V24.9993H35.4777V22.4873Z" fill="#04090D"/>
<path d="M35.4777 2.5127H32.9307V4.99997H35.4777V2.5127Z" fill="#04090D"/>
<path d="M32.9319 24.9995H30.4106V27.4873H32.9319V24.9995Z" fill="#04090D"/>
<path d="M32.9319 0H30.4106V2.51272H32.9319V0Z" fill="#04090D"/>
<path d="M30.4093 32.4868H27.8623V34.9999H30.4093V32.4868Z" fill="#04090D"/>
<path d="M30.4093 30H27.8623V32.4867H30.4093V30Z" fill="#04090D"/>
<path d="M30.4093 27.4868H27.8623V29.9999H30.4093V27.4868Z" fill="#04090D"/>
<path d="M30.4093 24.9995H27.8623V27.4873H30.4093V24.9995Z" fill="#04090D"/>
<path d="M30.4093 0H27.8623V2.51272H30.4093V0Z" fill="#04090D"/>
<path d="M27.8632 32.4868H25.3418V34.9999H27.8632V32.4868Z" fill="#04090D"/>
<path d="M27.8632 0H25.3418V2.51272H27.8632V0Z" fill="#04090D"/>
<path d="M25.3431 30H22.8218V32.4867H25.3431V30Z" fill="#04090D"/>
<path d="M25.3431 0H22.8218V2.51272H25.3431V0Z" fill="#04090D"/>
<path d="M22.8205 27.4868H20.2734V29.9999H22.8205V27.4868Z" fill="#04090D"/>
<path d="M22.8205 0H20.2734V2.51272H22.8205V0Z" fill="#04090D"/>
<path d="M20.2728 24.9995H17.7515V27.4873H20.2728V24.9995Z" fill="#04090D"/>
<path d="M20.2728 0H17.7515V2.51272H20.2728V0Z" fill="#04090D"/>
<path d="M17.752 24.9995H15.2051V27.4873H17.752V24.9995Z" fill="#04090D"/>
<path d="M17.752 0H15.2051V2.51272H17.752V0Z" fill="#04090D"/>
<path d="M15.2045 24.9995H12.6831V27.4873H15.2045V24.9995Z" fill="#04090D"/>
<path d="M15.2045 0H12.6831V2.51272H15.2045V0Z" fill="#04090D"/>
<path d="M12.6837 24.9995H10.1367V27.4873H12.6837V24.9995Z" fill="#04090D"/>
<path d="M12.6837 0H10.1367V2.51272H12.6837V0Z" fill="#04090D"/>
<path d="M10.1357 24.9995H7.61426V27.4873H10.1357V24.9995Z" fill="#04090D"/>
<path d="M10.1357 0H7.61426V2.51272H10.1357V0Z" fill="#04090D"/>
<path d="M7.61545 24.9995H5.06836V27.4873H7.61545V24.9995Z" fill="#04090D"/>
<path d="M7.61545 0H5.06836V2.51272H7.61545V0Z" fill="#04090D"/>
<path d="M5.06718 22.4873H2.5459V24.9993H5.06718V22.4873Z" fill="#04090D"/>
<path d="M5.06718 2.5127H2.5459V4.99997H5.06718V2.5127Z" fill="#04090D"/>
<path d="M2.54697 19.9995H0V22.4874H2.54697V19.9995Z" fill="#04090D"/>
<path d="M2.54697 17.5127H0V19.9997H2.54697V17.5127Z" fill="#04090D"/>
<path d="M2.54697 14.9995H0V17.5121H2.54697V14.9995Z" fill="#04090D"/>
<path d="M2.54697 12.5127H0V15.0001H2.54697V12.5127Z" fill="#04090D"/>
<path d="M2.54697 10H0V12.5126H2.54697V10Z" fill="#04090D"/>
<path d="M2.54697 7.51221H0V9.99959H2.54697V7.51221Z" fill="#04090D"/>
<path d="M2.54697 5H0V7.5126H2.54697V5Z" fill="#04090D"/>
</svg>
