<svg width="30" height="35" viewBox="0 0 30 35" fill="none" xmlns="http://www.w3.org/2000/svg">
<path d="M18.4624 4.66683V7.00016H11.5394V4.66683H18.4624ZM6.92398 23.3335H13.8471V25.6668H6.92398V23.3335ZM23.0778 21.0002H6.92398V18.6668H23.0778V21.0002ZM23.0778 16.3335H6.92398V14.0002H23.0778V16.3335ZM23.0778 11.6668H6.92398V9.3335H23.0778V11.6668ZM2.30859 2.3335V32.6668H20.7701V25.6668H27.6932V2.3335H2.30859Z" fill="#E9E5E1"/>
<path d="M20.7695 25.6665V32.6665H23.0772V30.3332H25.3849V27.9998H27.6926V25.6665H20.7695Z" fill="#4CADD0"/>
<path d="M13.8459 23.333H6.92285V25.6663H13.8459V23.333Z" fill="#4CADD0"/>
<path d="M23.0767 18.6665H6.92285V20.9998H23.0767V18.6665Z" fill="#4CADD0"/>
<path d="M23.0767 14H6.92285V16.3333H23.0767V14Z" fill="#4CADD0"/>
<path d="M23.0767 9.33301H6.92285V11.6663H23.0767V9.33301Z" fill="#4CADD0"/>
<path d="M18.4612 4.6665H11.5381V6.99984H18.4612V4.6665Z" fill="#4CADD0"/>
<path d="M23.0769 35V32.6667H2.30769V2.33333H27.6923V28H30V0H0V35H23.0769Z" fill="#181425"/>
<path d="M25.3848 30.3335H23.0771V32.6668H25.3848V30.3335Z" fill="#181425"/>
<path d="M27.6915 28H25.3838V30.3333H27.6915V28Z" fill="#181425"/>
</svg>
