<svg width="35" height="35" viewBox="0 0 35 35" fill="none" xmlns="http://www.w3.org/2000/svg">
<path d="M18.4262 20.2781H16.5742V22.1113H18.4262V20.2781Z" fill="white"/>
<path d="M16.5744 18.426H14.7412V20.278H16.5744V18.426Z" fill="white"/>
<path d="M16.5744 16.5928H14.7412V18.426H16.5744V16.5928Z" fill="white"/>
<path d="M18.4262 18.426H16.5742V20.278H18.4262V18.426Z" fill="white"/>
<path d="M14.7407 18.426H12.8887V20.278H14.7407V18.426Z" fill="#4C4A49"/>
<path d="M14.7407 16.5928H12.8887V18.426H14.7407V16.5928Z" fill="#4C4A49"/>
<path d="M22.1113 23.9446H20.2593V25.7966H22.1113V23.9446Z" fill="#4C4A49"/>
<path d="M16.5744 14.7407H14.7412V16.5927H16.5744V14.7407Z" fill="#4C4A49"/>
<path d="M22.1113 22.1111H20.2593V23.9443H22.1113V22.1111Z" fill="#4C4A49"/>
<path d="M22.1113 20.2781H20.2593V22.1113H22.1113V20.2781Z" fill="#4C4A49"/>
<path d="M20.2595 20.2781H18.4263V22.1113H20.2595V20.2781Z" fill="#4C4A49"/>
<path d="M20.2595 16.5928H18.4263V18.426H20.2595V16.5928Z" fill="#4C4A49"/>
<path d="M14.7407 14.7407H12.8887V16.5927H14.7407V14.7407Z" fill="#4C4A49"/>
<path d="M18.4262 14.7407H16.5742V16.5927H18.4262V14.7407Z" fill="#4C4A49"/>
<path d="M20.2595 18.426H18.4263V20.278H20.2595V18.426Z" fill="#4C4A49"/>
<path d="M18.4262 16.5928H16.5742V18.426H18.4262V16.5928Z" fill="#4C4A49"/>
<path d="M20.2595 23.9446H18.4263V25.7966H20.2595V23.9446Z" fill="#4C4A49"/>
<path d="M18.4262 27.6296H16.5742V29.4816H18.4262V27.6296Z" fill="#4C4A49"/>
<path d="M18.4262 22.1111H16.5742V23.9443H18.4262V22.1111Z" fill="#4C4A49"/>
<path d="M20.2595 22.1111H18.4263V23.9443H20.2595V22.1111Z" fill="#4C4A49"/>
<path d="M18.4262 23.9446H16.5742V25.7966H18.4262V23.9446Z" fill="#4C4A49"/>
<path d="M18.4262 25.7964H16.5742V27.6296H18.4262V25.7964Z" fill="#4C4A49"/>
<path d="M20.2595 25.7964H18.4263V27.6296H20.2595V25.7964Z" fill="#4C4A49"/>
<path d="M11.0556 23.9446H9.20361V25.7966H11.0556V23.9446Z" fill="#4C4A49"/>
<path d="M11.0556 14.7407H9.20361V16.5927H11.0556V14.7407Z" fill="#4C4A49"/>
<path d="M11.0556 16.5928H9.20361V18.426H11.0556V16.5928Z" fill="#4C4A49"/>
<path d="M12.8889 22.1111H11.0557V23.9443H12.8889V22.1111Z" fill="#4C4A49"/>
<path d="M12.8889 14.7407H11.0557V16.5927H12.8889V14.7407Z" fill="#4C4A49"/>
<path d="M12.8889 23.9446H11.0557V25.7966H12.8889V23.9446Z" fill="#4C4A49"/>
<path d="M11.0556 22.1111H9.20361V23.9443H11.0556V22.1111Z" fill="#4C4A49"/>
<path d="M11.0556 25.7964H9.20361V27.6296H11.0556V25.7964Z" fill="#4C4A49"/>
<path d="M12.8889 25.7964H11.0557V27.6296H12.8889V25.7964Z" fill="#4C4A49"/>
<path d="M12.8889 16.5928H11.0557V18.426H12.8889V16.5928Z" fill="#4C4A49"/>
<path d="M12.8889 20.2781H11.0557V22.1113H12.8889V20.2781Z" fill="#4C4A49"/>
<path d="M11.0556 18.426H9.20361V20.278H11.0556V18.426Z" fill="#4C4A49"/>
<path d="M11.0556 20.2781H9.20361V22.1113H11.0556V20.2781Z" fill="#4C4A49"/>
<path d="M12.8889 18.426H11.0557V20.278H12.8889V18.426Z" fill="#4C4A49"/>
<path d="M9.20383 23.9446H7.37061V25.7966H9.20383V23.9446Z" fill="#4C4A49"/>
<path d="M16.5744 20.2781H14.7412V22.1113H16.5744V20.2781Z" fill="#4C4A49"/>
<path d="M16.5744 23.9446H14.7412V25.7966H16.5744V23.9446Z" fill="#4C4A49"/>
<path d="M16.5744 22.1111H14.7412V23.9443H16.5744V22.1111Z" fill="#4C4A49"/>
<path d="M16.5744 25.7964H14.7412V27.6296H16.5744V25.7964Z" fill="#4C4A49"/>
<path d="M9.20383 20.2781H7.37061V22.1113H9.20383V20.2781Z" fill="#4C4A49"/>
<path d="M9.20383 16.5928H7.37061V18.426H9.20383V16.5928Z" fill="#4C4A49"/>
<path d="M9.20383 25.7964H7.37061V27.6296H9.20383V25.7964Z" fill="#04090D"/>
<path d="M14.7407 22.1111H12.8887V23.9443H14.7407V22.1111Z" fill="#4C4A49"/>
<path d="M14.7407 23.9446H12.8887V25.7966H14.7407V23.9446Z" fill="#4C4A49"/>
<path d="M16.5744 27.6296H14.7412V29.4816H16.5744V27.6296Z" fill="#4C4A49"/>
<path d="M9.20383 18.426H7.37061V20.278H9.20383V18.426Z" fill="#4C4A49"/>
<path d="M14.7407 20.2781H12.8887V22.1113H14.7407V20.2781Z" fill="#4C4A49"/>
<path d="M9.20383 22.1111H7.37061V23.9443H9.20383V22.1111Z" fill="#4C4A49"/>
<path d="M14.7407 25.7964H12.8887V27.6296H14.7407V25.7964Z" fill="#4C4A49"/>
<path d="M14.7407 27.6296H12.8887V29.4816H14.7407V27.6296Z" fill="#4C4A49"/>
<path d="M27.6302 5.53711H25.7969V7.37033H27.6302V5.53711Z" fill="#ED1C28"/>
<path d="M27.6302 9.22241H25.7969V11.0556H27.6302V9.22241Z" fill="#04090D"/>
<path d="M27.6302 11.0557H25.7969V12.9076H27.6302V11.0557Z" fill="#04090D"/>
<path d="M31.3149 9.22241H29.4629V11.0556H31.3149V9.22241Z" fill="#04090D"/>
<path d="M33.1482 11.0557H31.3149V12.9076H33.1482V11.0557Z" fill="#04090D"/>
<path d="M35.0003 5.53711H33.1484V7.37033H35.0003V5.53711Z" fill="#04090D"/>
<path d="M33.1482 5.53711H31.3149V7.37033H33.1482V5.53711Z" fill="#04090D"/>
<path d="M33.1482 0H31.3149V1.85189H33.1482V0Z" fill="#04090D"/>
<path d="M31.3149 1.85205H29.4629V3.68536H31.3149V1.85205Z" fill="#04090D"/>
<path d="M27.6302 1.85205H25.7969V3.68536H27.6302V1.85205Z" fill="#04090D"/>
<path d="M27.6302 0H25.7969V1.85189H27.6302V0Z" fill="#04090D"/>
<path d="M25.7962 5.53711H23.9443V7.37033H25.7962V5.53711Z" fill="#04090D"/>
<path d="M23.9445 23.9446H22.1113V25.7966H23.9445V23.9446Z" fill="#04090D"/>
<path d="M23.9445 22.1111H22.1113V23.9443H23.9445V22.1111Z" fill="#04090D"/>
<path d="M23.9445 20.2781H22.1113V22.1113H23.9445V20.2781Z" fill="#04090D"/>
<path d="M23.9445 5.53711H22.1113V7.37033H23.9445V5.53711Z" fill="#04090D"/>
<path d="M22.1113 27.6296H20.2593V29.4816H22.1113V27.6296Z" fill="#04090D"/>
<path d="M22.1113 25.7964H20.2593V27.6296H22.1113V25.7964Z" fill="#04090D"/>
<path d="M22.1113 18.426H20.2593V20.278H22.1113V18.426Z" fill="#04090D"/>
<path d="M22.1113 16.5928H20.2593V18.426H22.1113V16.5928Z" fill="#04090D"/>
<path d="M22.1113 3.6853H20.2593V5.5372H22.1113V3.6853Z" fill="#04090D"/>
<path d="M20.2595 29.4817H18.4263V31.3149H20.2595V29.4817Z" fill="#04090D"/>
<path d="M20.2595 27.6296H18.4263V29.4816H20.2595V27.6296Z" fill="#04090D"/>
<path d="M20.2595 14.7407H18.4263V16.5927H20.2595V14.7407Z" fill="#04090D"/>
<path d="M20.2595 1.85205H18.4263V3.68536H20.2595V1.85205Z" fill="#04090D"/>
<path d="M18.4262 31.3147H16.5742V33.1667H18.4262V31.3147Z" fill="#04090D"/>
<path d="M18.4262 29.4817H16.5742V31.3149H18.4262V29.4817Z" fill="#04090D"/>
<path d="M18.4262 12.9077H16.5742V14.7409H18.4262V12.9077Z" fill="#04090D"/>
<path d="M18.4262 1.85205H16.5742V3.68536H18.4262V1.85205Z" fill="#04090D"/>
<path d="M16.5744 31.3147H14.7412V33.1667H16.5744V31.3147Z" fill="#04090D"/>
<path d="M16.5744 29.4817H14.7412V31.3149H16.5744V29.4817Z" fill="#04090D"/>
<path d="M16.5744 12.9077H14.7412V14.7409H16.5744V12.9077Z" fill="#04090D"/>
<path d="M16.5744 1.85205H14.7412V3.68536H16.5744V1.85205Z" fill="#04090D"/>
<path d="M14.7407 33.1667H12.8887V35H14.7407V33.1667Z" fill="#04090D"/>
<path d="M14.7407 31.3147H12.8887V33.1667H14.7407V31.3147Z" fill="#04090D"/>
<path d="M14.7407 29.4817H12.8887V31.3149H14.7407V29.4817Z" fill="#04090D"/>
<path d="M14.7407 12.9077H12.8887V14.7409H14.7407V12.9077Z" fill="#04090D"/>
<path d="M14.7407 11.0557H12.8887V12.9076H14.7407V11.0557Z" fill="#04090D"/>
<path d="M14.7407 9.22241H12.8887V11.0556H14.7407V9.22241Z" fill="#04090D"/>
<path d="M14.7407 3.6853H12.8887V5.5372H14.7407V3.6853Z" fill="#04090D"/>
<path d="M12.8889 33.1667H11.0557V35H12.8889V33.1667Z" fill="#04090D"/>
<path d="M12.8889 31.3147H11.0557V33.1667H12.8889V31.3147Z" fill="#04090D"/>
<path d="M12.8889 29.4817H11.0557V31.3149H12.8889V29.4817Z" fill="#04090D"/>
<path d="M12.8889 27.6296H11.0557V29.4816H12.8889V27.6296Z" fill="#04090D"/>
<path d="M12.8889 12.9077H11.0557V14.7409H12.8889V12.9077Z" fill="#04090D"/>
<path d="M12.8889 11.0557H11.0557V12.9076H12.8889V11.0557Z" fill="#04090D"/>
<path d="M12.8889 9.22241H11.0557V11.0556H12.8889V9.22241Z" fill="#04090D"/>
<path d="M12.8889 7.37036H11.0557V9.22234H12.8889V7.37036Z" fill="#04090D"/>
<path d="M12.8889 5.53711H11.0557V7.37033H12.8889V5.53711Z" fill="#04090D"/>
<path d="M11.0556 33.1667H9.20361V35H11.0556V33.1667Z" fill="#04090D"/>
<path d="M11.0556 31.3147H9.20361V33.1667H11.0556V31.3147Z" fill="#04090D"/>
<path d="M11.0556 29.4817H9.20361V31.3149H11.0556V29.4817Z" fill="#04090D"/>
<path d="M11.0556 27.6296H9.20361V29.4816H11.0556V27.6296Z" fill="#04090D"/>
<path d="M11.0556 12.9077H9.20361V14.7409H11.0556V12.9077Z" fill="#04090D"/>
<path d="M11.0556 11.0557H9.20361V12.9076H11.0556V11.0557Z" fill="#04090D"/>
<path d="M11.0556 9.22241H9.20361V11.0556H11.0556V9.22241Z" fill="#04090D"/>
<path d="M9.20383 31.3147H7.37061V33.1667H9.20383V31.3147Z" fill="#04090D"/>
<path d="M9.20383 29.4817H7.37061V31.3149H9.20383V29.4817Z" fill="#04090D"/>
<path d="M9.20383 27.6296H7.37061V29.4816H9.20383V27.6296Z" fill="#04090D"/>
<path d="M9.20383 14.7407H7.37061V16.5927H9.20383V14.7407Z" fill="#04090D"/>
<path d="M9.20383 12.9077H7.37061V14.7409H9.20383V12.9077Z" fill="#04090D"/>
<path d="M7.37054 31.3147H5.51855V33.1667H7.37054V31.3147Z" fill="#04090D"/>
<path d="M7.37054 29.4817H5.51855V31.3149H7.37054V29.4817Z" fill="#04090D"/>
<path d="M7.37054 27.6296H5.51855V29.4816H7.37054V27.6296Z" fill="#04090D"/>
<path d="M7.37054 25.7964H5.51855V27.6296H7.37054V25.7964Z" fill="#04090D"/>
<path d="M7.37054 23.9446H5.51855V25.7966H7.37054V23.9446Z" fill="#04090D"/>
<path d="M7.37054 22.1111H5.51855V23.9443H7.37054V22.1111Z" fill="#04090D"/>
<path d="M7.37054 20.2781H5.51855V22.1113H7.37054V20.2781Z" fill="#04090D"/>
<path d="M7.37054 18.426H5.51855V20.278H7.37054V18.426Z" fill="#04090D"/>
<path d="M7.37054 16.5928H5.51855V18.426H7.37054V16.5928Z" fill="#04090D"/>
<path d="M7.37054 14.7407H5.51855V16.5927H7.37054V14.7407Z" fill="#04090D"/>
<path d="M7.37054 12.9077H5.51855V14.7409H7.37054V12.9077Z" fill="#04090D"/>
<path d="M5.51877 29.4817H3.68555V31.3149H5.51877V29.4817Z" fill="#04090D"/>
<path d="M5.51877 27.6296H3.68555V29.4816H5.51877V27.6296Z" fill="#04090D"/>
<path d="M5.51877 25.7964H3.68555V27.6296H5.51877V25.7964Z" fill="#04090D"/>
<path d="M5.51877 23.9446H3.68555V25.7966H5.51877V23.9446Z" fill="#04090D"/>
<path d="M5.51877 22.1111H3.68555V23.9443H5.51877V22.1111Z" fill="#04090D"/>
<path d="M5.51877 20.2781H3.68555V22.1113H5.51877V20.2781Z" fill="#04090D"/>
<path d="M5.51877 18.426H3.68555V20.278H5.51877V18.426Z" fill="#04090D"/>
<path d="M5.51877 16.5928H3.68555V18.426H5.51877V16.5928Z" fill="#04090D"/>
<path d="M5.51877 14.7407H3.68555V16.5927H5.51877V14.7407Z" fill="#04090D"/>
<path d="M3.68536 27.6296H1.85205V29.4816H3.68536V27.6296Z" fill="#04090D"/>
<path d="M3.68536 25.7964H1.85205V27.6296H3.68536V25.7964Z" fill="#04090D"/>
<path d="M3.68536 23.9446H1.85205V25.7966H3.68536V23.9446Z" fill="#04090D"/>
<path d="M3.68536 22.1111H1.85205V23.9443H3.68536V22.1111Z" fill="#04090D"/>
<path d="M3.68536 20.2781H1.85205V22.1113H3.68536V20.2781Z" fill="#04090D"/>
<path d="M3.68536 18.426H1.85205V20.278H3.68536V18.426Z" fill="#04090D"/>
<path d="M3.68536 16.5928H1.85205V18.426H3.68536V16.5928Z" fill="#04090D"/>
<path d="M1.85189 23.9446H0V25.7966H1.85189V23.9446Z" fill="#04090D"/>
<path d="M1.85189 22.1111H0V23.9443H1.85189V22.1111Z" fill="#04090D"/>
<path d="M1.85189 20.2781H0V22.1113H1.85189V20.2781Z" fill="#04090D"/>
</svg>
