<svg width="41" height="39" viewBox="0 0 41 39" fill="none" xmlns="http://www.w3.org/2000/svg">
<path d="M18.4484 2.05273H16.3984V4.10535H18.4484V2.05273Z" fill="#8A4200"/>
<path d="M20.5013 2.05273H18.4512V4.10535H20.5013V2.05273Z" fill="#8A4200"/>
<path d="M22.549 2.05273H20.499V4.10535H22.549V2.05273Z" fill="#8A4200"/>
<path d="M24.6008 2.05273H22.5508V4.10535H24.6008V2.05273Z" fill="#8A4200"/>
<path d="M14.3508 4.10498H12.3008V6.15742H14.3508V4.10498Z" fill="#8A4200"/>
<path d="M16.4006 4.10498H14.3506V6.15742H16.4006V4.10498Z" fill="#8A4200"/>
<path d="M18.4484 4.10498H16.3984V6.15742H18.4484V4.10498Z" fill="#8A4200"/>
<path d="M20.5013 4.10498H18.4512V6.15742H20.5013V4.10498Z" fill="#8A4200"/>
<path d="M22.549 4.10498H20.499V6.15742H22.549V4.10498Z" fill="#8A4200"/>
<path d="M24.6008 4.10498H22.5508V6.15742H24.6008V4.10498Z" fill="#8A4200"/>
<path d="M26.6496 4.10498H24.5996V6.15742H26.6496V4.10498Z" fill="#8A4200"/>
<path d="M28.6994 4.10498H26.6494V6.15742H28.6994V4.10498Z" fill="#8A4200"/>
<path d="M14.3508 6.15771H12.3008V8.21049H14.3508V6.15771Z" fill="#8A4200"/>
<path d="M16.4006 6.15771H14.3506V8.21049H16.4006V6.15771Z" fill="#8A4200"/>
<path d="M18.4484 6.15771H16.3984V8.21049H18.4484V6.15771Z" fill="#8A4200"/>
<path d="M20.5013 6.15771H18.4512V8.21049H20.5013V6.15771Z" fill="#8A4200"/>
<path d="M22.549 6.15771H20.499V8.21049H22.549V6.15771Z" fill="#8A4200"/>
<path d="M24.6008 6.15771H22.5508V8.21049H24.6008V6.15771Z" fill="#8A4200"/>
<path d="M26.6496 6.15771H24.5996V8.21049H26.6496V6.15771Z" fill="#8A4200"/>
<path d="M28.6994 6.15771H26.6494V8.21049H28.6994V6.15771Z" fill="#8A4200"/>
<path d="M12.301 8.21094H10.251V10.2637H12.301V8.21094Z" fill="#8A4200"/>
<path d="M14.3508 8.21094H12.3008V10.2637H14.3508V8.21094Z" fill="#8A4200"/>
<path d="M16.4006 8.21094H14.3506V10.2637H16.4006V8.21094Z" fill="#8A4200"/>
<path d="M18.4484 8.21094H16.3984V10.2637H18.4484V8.21094Z" fill="#8A4200"/>
<path d="M20.5013 8.21094H18.4512V10.2637H20.5013V8.21094Z" fill="#8A4200"/>
<path d="M22.549 8.21094H20.499V10.2637H22.549V8.21094Z" fill="#8A4200"/>
<path d="M28.6994 8.21094H26.6494V10.2637H28.6994V8.21094Z" fill="#8A4200"/>
<path d="M30.749 8.21094H28.6992V10.2637H30.749V8.21094Z" fill="#8A4200"/>
<path d="M12.301 10.2637H10.251V12.3161H12.301V10.2637Z" fill="#8A4200"/>
<path d="M14.3508 10.2637H12.3008V12.3161H14.3508V10.2637Z" fill="#8A4200"/>
<path d="M16.4006 10.2637H14.3506V12.3161H16.4006V10.2637Z" fill="#8A4200"/>
<path d="M30.749 10.2637H28.6992V12.3161H30.749V10.2637Z" fill="#8A4200"/>
<path d="M12.301 12.3159H10.251V14.3685H12.301V12.3159Z" fill="#8A4200"/>
<path d="M30.749 12.3159H28.6992V14.3685H30.749V12.3159Z" fill="#8A4200"/>
<path d="M24.6008 8.21094H22.5508V10.2637H24.6008V8.21094Z" fill="#FFC86E"/>
<path d="M26.6496 8.21094H24.5996V10.2637H26.6496V8.21094Z" fill="#FFC86E"/>
<path d="M18.4484 10.2637H16.3984V12.3161H18.4484V10.2637Z" fill="#FFC86E"/>
<path d="M20.5013 10.2637H18.4512V12.3161H20.5013V10.2637Z" fill="#FFC86E"/>
<path d="M22.549 10.2637H20.499V12.3161H22.549V10.2637Z" fill="#FFC86E"/>
<path d="M24.6008 10.2637H22.5508V12.3161H24.6008V10.2637Z" fill="#FFC86E"/>
<path d="M26.6496 10.2637H24.5996V12.3161H26.6496V10.2637Z" fill="#FFC86E"/>
<path d="M28.6994 10.2637H26.6494V12.3161H28.6994V10.2637Z" fill="#FFC86E"/>
<path d="M14.3508 12.3159H12.3008V14.3685H14.3508V12.3159Z" fill="#FFC86E"/>
<path d="M16.4006 12.3159H14.3506V14.3685H16.4006V12.3159Z" fill="#FFC86E"/>
<path d="M18.4484 12.3159H16.3984V14.3685H18.4484V12.3159Z" fill="#FFC86E"/>
<path d="M20.5013 12.3159H18.4512V14.3685H20.5013V12.3159Z" fill="#FFC86E"/>
<path d="M22.549 12.3159H20.499V14.3685H22.549V12.3159Z" fill="#FFC86E"/>
<path d="M24.6008 12.3159H22.5508V14.3685H24.6008V12.3159Z" fill="#FFC86E"/>
<path d="M26.6496 12.3159H24.5996V14.3685H26.6496V12.3159Z" fill="#FFC86E"/>
<path d="M28.6994 12.3159H26.6494V14.3685H28.6994V12.3159Z" fill="#FFC86E"/>
<path d="M14.3508 14.3687H12.3008V16.4213H14.3508V14.3687Z" fill="#FFC86E"/>
<path d="M16.4006 14.3687H14.3506V16.4213H16.4006V14.3687Z" fill="#FFC86E"/>
<path d="M18.4484 14.3687H16.3984V16.4213H18.4484V14.3687Z" fill="#FFC86E"/>
<path d="M20.5013 14.3687H18.4512V16.4213H20.5013V14.3687Z" fill="#FFC86E"/>
<path d="M22.549 14.3687H20.499V16.4213H22.549V14.3687Z" fill="#FFC86E"/>
<path d="M24.6008 14.3687H22.5508V16.4213H24.6008V14.3687Z" fill="#FFC86E"/>
<path d="M26.6496 14.3687H24.5996V16.4213H26.6496V14.3687Z" fill="#FFC86E"/>
<path d="M28.6994 14.3687H26.6494V16.4213H28.6994V14.3687Z" fill="#FFC86E"/>
<path d="M14.3508 16.4209H12.3008V18.4737H14.3508V16.4209Z" fill="#FFC86E"/>
<path d="M16.4006 16.4209H14.3506V18.4737H16.4006V16.4209Z" fill="#FFC86E"/>
<path d="M18.4484 16.4209H16.3984V18.4737H18.4484V16.4209Z" fill="#FFC86E"/>
<path d="M20.5013 16.4209H18.4512V18.4737H20.5013V16.4209Z" fill="#FFC86E"/>
<path d="M22.549 16.4209H20.499V18.4737H22.549V16.4209Z" fill="#FFC86E"/>
<path d="M24.6008 16.4209H22.5508V18.4737H24.6008V16.4209Z" fill="#FFC86E"/>
<path d="M26.6496 16.4209H24.5996V18.4737H26.6496V16.4209Z" fill="#FFC86E"/>
<path d="M28.6994 16.4209H26.6494V18.4737H28.6994V16.4209Z" fill="#FFC86E"/>
<path d="M16.4006 18.4736H14.3506V20.5262H16.4006V18.4736Z" fill="#FFC86E"/>
<path d="M18.4484 18.4736H16.3984V20.5262H18.4484V18.4736Z" fill="#FFC86E"/>
<path d="M20.5013 18.4736H18.4512V20.5262H20.5013V18.4736Z" fill="#FFC86E"/>
<path d="M22.549 18.4736H20.499V20.5262H22.549V18.4736Z" fill="#FFC86E"/>
<path d="M24.6008 18.4736H22.5508V20.5262H24.6008V18.4736Z" fill="#FFC86E"/>
<path d="M26.6496 18.4736H24.5996V20.5262H26.6496V18.4736Z" fill="#FFC86E"/>
<path d="M16.4006 20.5264H14.3506V22.579H16.4006V20.5264Z" fill="#FFC86E"/>
<path d="M18.4484 20.5264H16.3984V22.579H18.4484V20.5264Z" fill="#FFC86E"/>
<path d="M20.5013 20.5264H18.4512V22.579H20.5013V20.5264Z" fill="#FFC86E"/>
<path d="M22.549 20.5264H20.499V22.579H22.549V20.5264Z" fill="#FFC86E"/>
<path d="M24.6008 20.5264H22.5508V22.579H24.6008V20.5264Z" fill="#FFC86E"/>
<path d="M26.6496 20.5264H24.5996V22.579H26.6496V20.5264Z" fill="#FFC86E"/>
<path d="M20.5013 22.5786H18.4512V24.6312H20.5013V22.5786Z" fill="#FFC86E"/>
<path d="M22.549 22.5786H20.499V24.6312H22.549V22.5786Z" fill="#FFC86E"/>
<path d="M18.4484 24.6313H16.3984V26.6838H18.4484V24.6313Z" fill="#E6AB54"/>
<path d="M24.6008 24.6313H22.5508V26.6838H24.6008V24.6313Z" fill="#E6AB54"/>
<path d="M16.4006 26.6836H14.3506V28.7364H16.4006V26.6836Z" fill="#E6AB54"/>
<path d="M18.4484 26.6836H16.3984V28.7364H18.4484V26.6836Z" fill="#E6AB54"/>
<path d="M20.5013 26.6836H18.4512V28.7364H20.5013V26.6836Z" fill="#E6AB54"/>
<path d="M22.549 26.6836H20.499V28.7364H22.549V26.6836Z" fill="#E6AB54"/>
<path d="M24.6008 26.6836H22.5508V28.7364H24.6008V26.6836Z" fill="#E6AB54"/>
<path d="M26.6496 26.6836H24.5996V28.7364H26.6496V26.6836Z" fill="#E6AB54"/>
<path d="M20.5013 28.7363H18.4512V30.7889H20.5013V28.7363Z" fill="#E6AB54"/>
<path d="M22.549 28.7363H20.499V30.7889H22.549V28.7363Z" fill="#E6AB54"/>
<path d="M8.20037 28.7363H6.15039V30.7889H8.20037V28.7363Z" fill="#A60000"/>
<path d="M10.2502 28.7363H8.2002V30.7889H10.2502V28.7363Z" fill="#A60000"/>
<path d="M12.301 28.7363H10.251V30.7889H12.301V28.7363Z" fill="#A60000"/>
<path d="M14.3508 28.7363H12.3008V30.7889H14.3508V28.7363Z" fill="#A60000"/>
<path d="M28.6994 28.7363H26.6494V30.7889H28.6994V28.7363Z" fill="#A60000"/>
<path d="M30.749 28.7363H28.6992V30.7889H30.749V28.7363Z" fill="#A60000"/>
<path d="M32.8001 28.7363H30.75V30.7889H32.8001V28.7363Z" fill="#A60000"/>
<path d="M34.8498 28.7363H32.7998V30.7889H34.8498V28.7363Z" fill="#A60000"/>
<path d="M6.15057 30.7891H4.10059V32.8418H6.15057V30.7891Z" fill="#A60000"/>
<path d="M8.20037 30.7891H6.15039V32.8418H8.20037V30.7891Z" fill="#A60000"/>
<path d="M10.2502 30.7891H8.2002V32.8418H10.2502V30.7891Z" fill="#A60000"/>
<path d="M12.301 30.7891H10.251V32.8418H12.301V30.7891Z" fill="#A60000"/>
<path d="M14.3508 30.7891H12.3008V32.8418H14.3508V30.7891Z" fill="#A60000"/>
<path d="M16.4006 30.7891H14.3506V32.8418H16.4006V30.7891Z" fill="#A60000"/>
<path d="M18.4484 30.7891H16.3984V32.8418H18.4484V30.7891Z" fill="#A60000"/>
<path d="M24.6008 30.7891H22.5508V32.8418H24.6008V30.7891Z" fill="#A60000"/>
<path d="M26.6496 30.7891H24.5996V32.8418H26.6496V30.7891Z" fill="#A60000"/>
<path d="M28.6994 30.7891H26.6494V32.8418H28.6994V30.7891Z" fill="#A60000"/>
<path d="M30.749 30.7891H28.6992V32.8418H30.749V30.7891Z" fill="#A60000"/>
<path d="M32.8001 30.7891H30.75V32.8418H32.8001V30.7891Z" fill="#A60000"/>
<path d="M34.8498 30.7891H32.7998V32.8418H34.8498V30.7891Z" fill="#A60000"/>
<path d="M36.8998 30.7891H34.8496V32.8418H36.8998V30.7891Z" fill="#A60000"/>
<path d="M6.15057 32.8423H4.10059V34.8949H6.15057V32.8423Z" fill="#A60000"/>
<path d="M8.20037 32.8423H6.15039V34.8949H8.20037V32.8423Z" fill="#A60000"/>
<path d="M10.2502 32.8423H8.2002V34.8949H10.2502V32.8423Z" fill="#A60000"/>
<path d="M12.301 32.8423H10.251V34.8949H12.301V32.8423Z" fill="#A60000"/>
<path d="M14.3508 32.8423H12.3008V34.8949H14.3508V32.8423Z" fill="#A60000"/>
<path d="M16.4006 32.8423H14.3506V34.8949H16.4006V32.8423Z" fill="#A60000"/>
<path d="M18.4484 32.8423H16.3984V34.8949H18.4484V32.8423Z" fill="#A60000"/>
<path d="M20.5013 32.8423H18.4512V34.8949H20.5013V32.8423Z" fill="#A60000"/>
<path d="M22.549 32.8423H20.499V34.8949H22.549V32.8423Z" fill="#A60000"/>
<path d="M24.6008 32.8423H22.5508V34.8949H24.6008V32.8423Z" fill="#A60000"/>
<path d="M26.6496 32.8423H24.5996V34.8949H26.6496V32.8423Z" fill="#A60000"/>
<path d="M28.6994 32.8423H26.6494V34.8949H28.6994V32.8423Z" fill="#A60000"/>
<path d="M30.749 32.8423H28.6992V34.8949H30.749V32.8423Z" fill="#A60000"/>
<path d="M32.8001 32.8423H30.75V34.8949H32.8001V32.8423Z" fill="#A60000"/>
<path d="M34.8498 32.8423H32.7998V34.8949H34.8498V32.8423Z" fill="#A60000"/>
<path d="M36.8998 32.8423H34.8496V34.8949H36.8998V32.8423Z" fill="#A60000"/>
<path d="M4.098 34.895H2.04785V36.9475H4.098V34.895Z" fill="#A60000"/>
<path d="M6.15057 34.895H4.10059V36.9475H6.15057V34.895Z" fill="#A60000"/>
<path d="M8.20037 34.895H6.15039V36.9475H8.20037V34.895Z" fill="#A60000"/>
<path d="M10.2502 34.895H8.2002V36.9475H10.2502V34.895Z" fill="#A60000"/>
<path d="M12.301 34.895H10.251V36.9475H12.301V34.895Z" fill="#A60000"/>
<path d="M14.3508 34.895H12.3008V36.9475H14.3508V34.895Z" fill="#A60000"/>
<path d="M16.4006 34.895H14.3506V36.9475H16.4006V34.895Z" fill="#A60000"/>
<path d="M18.4484 34.895H16.3984V36.9475H18.4484V34.895Z" fill="#A60000"/>
<path d="M20.5013 34.895H18.4512V36.9475H20.5013V34.895Z" fill="#A60000"/>
<path d="M22.549 34.895H20.499V36.9475H22.549V34.895Z" fill="#A60000"/>
<path d="M24.6008 34.895H22.5508V36.9475H24.6008V34.895Z" fill="#A60000"/>
<path d="M26.6496 34.895H24.5996V36.9475H26.6496V34.895Z" fill="#A60000"/>
<path d="M28.6994 34.895H26.6494V36.9475H28.6994V34.895Z" fill="#A60000"/>
<path d="M30.749 34.895H28.6992V36.9475H30.749V34.895Z" fill="#A60000"/>
<path d="M32.8001 34.895H30.75V36.9475H32.8001V34.895Z" fill="#A60000"/>
<path d="M34.8498 34.895H32.7998V36.9475H34.8498V34.895Z" fill="#A60000"/>
<path d="M36.8998 34.895H34.8496V36.9475H36.8998V34.895Z" fill="#A60000"/>
<path d="M38.9518 34.895H36.9019V36.9475H38.9518V34.895Z" fill="#A60000"/>
<path d="M4.098 36.9473H2.04785V39H4.098V36.9473Z" fill="#A60000"/>
<path d="M6.15057 36.9473H4.10059V39H6.15057V36.9473Z" fill="#A60000"/>
<path d="M8.20037 36.9473H6.15039V39H8.20037V36.9473Z" fill="#A60000"/>
<path d="M10.2502 36.9473H8.2002V39H10.2502V36.9473Z" fill="#A60000"/>
<path d="M12.301 36.9473H10.251V39H12.301V36.9473Z" fill="#A60000"/>
<path d="M14.3508 36.9473H12.3008V39H14.3508V36.9473Z" fill="#A60000"/>
<path d="M16.4006 36.9473H14.3506V39H16.4006V36.9473Z" fill="#A60000"/>
<path d="M18.4484 36.9473H16.3984V39H18.4484V36.9473Z" fill="#A60000"/>
<path d="M20.5013 36.9473H18.4512V39H20.5013V36.9473Z" fill="#A60000"/>
<path d="M22.549 36.9473H20.499V39H22.549V36.9473Z" fill="#A60000"/>
<path d="M24.6008 36.9473H22.5508V39H24.6008V36.9473Z" fill="#A60000"/>
<path d="M26.6496 36.9473H24.5996V39H26.6496V36.9473Z" fill="#A60000"/>
<path d="M28.6994 36.9473H26.6494V39H28.6994V36.9473Z" fill="#A60000"/>
<path d="M30.749 36.9473H28.6992V39H30.749V36.9473Z" fill="#A60000"/>
<path d="M32.8001 36.9473H30.75V39H32.8001V36.9473Z" fill="#A60000"/>
<path d="M34.8498 36.9473H32.7998V39H34.8498V36.9473Z" fill="#A60000"/>
<path d="M36.8998 36.9473H34.8496V39H36.8998V36.9473Z" fill="#A60000"/>
<path d="M38.9518 36.9473H36.9019V39H38.9518V36.9473Z" fill="#A60000"/>
<path d="M14.3508 2.05273H12.3008V4.10535H14.3508V2.05273Z" fill="#360000"/>
<path d="M16.4006 2.05273H14.3506V4.10535H16.4006V2.05273Z" fill="#360000"/>
<path d="M26.6496 2.05273H24.5996V4.10535H26.6496V2.05273Z" fill="#360000"/>
<path d="M28.6994 2.05273H26.6494V4.10535H28.6994V2.05273Z" fill="#360000"/>
<path d="M18.4484 0H16.3984V2.05261H18.4484V0Z" fill="#360000"/>
<path d="M20.5013 0H18.4512V2.05261H20.5013V0Z" fill="#360000"/>
<path d="M22.549 0H20.499V2.05261H22.549V0Z" fill="#360000"/>
<path d="M24.6008 0H22.5508V2.05261H24.6008V0Z" fill="#360000"/>
<path d="M12.301 4.10498H10.251V6.15742H12.301V4.10498Z" fill="#360000"/>
<path d="M30.749 4.10498H28.6992V6.15742H30.749V4.10498Z" fill="#360000"/>
<path d="M12.301 6.15771H10.251V8.21049H12.301V6.15771Z" fill="#360000"/>
<path d="M30.749 6.15771H28.6992V8.21049H30.749V6.15771Z" fill="#360000"/>
<path d="M10.2502 8.21094H8.2002V10.2637H10.2502V8.21094Z" fill="#360000"/>
<path d="M32.8001 8.21094H30.75V10.2637H32.8001V8.21094Z" fill="#360000"/>
<path d="M10.2502 10.2637H8.2002V12.3161H10.2502V10.2637Z" fill="#360000"/>
<path d="M32.8001 10.2637H30.75V12.3161H32.8001V10.2637Z" fill="#360000"/>
<path d="M10.2502 12.3159H8.2002V14.3685H10.2502V12.3159Z" fill="#360000"/>
<path d="M32.8001 12.3159H30.75V14.3685H32.8001V12.3159Z" fill="#360000"/>
<path d="M12.301 14.3687H10.251V16.4213H12.301V14.3687Z" fill="#360000"/>
<path d="M30.749 14.3687H28.6992V16.4213H30.749V14.3687Z" fill="#360000"/>
<path d="M12.301 16.4209H10.251V18.4737H12.301V16.4209Z" fill="#360000"/>
<path d="M30.749 16.4209H28.6992V18.4737H30.749V16.4209Z" fill="#360000"/>
<path d="M14.3508 18.4736H12.3008V20.5262H14.3508V18.4736Z" fill="#360000"/>
<path d="M28.6994 18.4736H26.6494V20.5262H28.6994V18.4736Z" fill="#360000"/>
<path d="M14.3508 20.5264H12.3008V22.579H14.3508V20.5264Z" fill="#360000"/>
<path d="M28.6994 20.5264H26.6494V22.579H28.6994V20.5264Z" fill="#360000"/>
<path d="M16.4006 22.5786H14.3506V24.6312H16.4006V22.5786Z" fill="#360000"/>
<path d="M18.4484 22.5786H16.3984V24.6312H18.4484V22.5786Z" fill="#360000"/>
<path d="M24.6008 22.5786H22.5508V24.6312H24.6008V22.5786Z" fill="#360000"/>
<path d="M26.6496 22.5786H24.5996V24.6312H26.6496V22.5786Z" fill="#360000"/>
<path d="M16.4006 24.6313H14.3506V26.6838H16.4006V24.6313Z" fill="#360000"/>
<path d="M20.5013 24.6313H18.4512V26.6838H20.5013V24.6313Z" fill="#360000"/>
<path d="M22.549 24.6313H20.499V26.6838H22.549V24.6313Z" fill="#360000"/>
<path d="M26.6496 24.6313H24.5996V26.6838H26.6496V24.6313Z" fill="#360000"/>
<path d="M8.20037 26.6836H6.15039V28.7364H8.20037V26.6836Z" fill="#360000"/>
<path d="M10.2502 26.6836H8.2002V28.7364H10.2502V26.6836Z" fill="#360000"/>
<path d="M12.301 26.6836H10.251V28.7364H12.301V26.6836Z" fill="#360000"/>
<path d="M14.3508 26.6836H12.3008V28.7364H14.3508V26.6836Z" fill="#360000"/>
<path d="M28.6994 26.6836H26.6494V28.7364H28.6994V26.6836Z" fill="#360000"/>
<path d="M30.749 26.6836H28.6992V28.7364H30.749V26.6836Z" fill="#360000"/>
<path d="M32.8001 26.6836H30.75V28.7364H32.8001V26.6836Z" fill="#360000"/>
<path d="M34.8498 26.6836H32.7998V28.7364H34.8498V26.6836Z" fill="#360000"/>
<path d="M6.15057 28.7363H4.10059V30.7889H6.15057V28.7363Z" fill="#360000"/>
<path d="M16.4006 28.7363H14.3506V30.7889H16.4006V28.7363Z" fill="#360000"/>
<path d="M18.4484 28.7363H16.3984V30.7889H18.4484V28.7363Z" fill="#360000"/>
<path d="M24.6008 28.7363H22.5508V30.7889H24.6008V28.7363Z" fill="#360000"/>
<path d="M26.6496 28.7363H24.5996V30.7889H26.6496V28.7363Z" fill="#360000"/>
<path d="M36.8998 28.7363H34.8496V30.7889H36.8998V28.7363Z" fill="#360000"/>
<path d="M4.098 30.7891H2.04785V32.8418H4.098V30.7891Z" fill="#360000"/>
<path d="M20.5013 30.7891H18.4512V32.8418H20.5013V30.7891Z" fill="#360000"/>
<path d="M22.549 30.7891H20.499V32.8418H22.549V30.7891Z" fill="#360000"/>
<path d="M38.9518 30.7891H36.9019V32.8418H38.9518V30.7891Z" fill="#360000"/>
<path d="M4.098 32.8423H2.04785V34.8949H4.098V32.8423Z" fill="#360000"/>
<path d="M38.9518 32.8423H36.9019V34.8949H38.9518V32.8423Z" fill="#360000"/>
<path d="M2.04981 34.895H0V36.9475H2.04981V34.895Z" fill="#360000"/>
<path d="M41.0002 34.895H38.9502V36.9475H41.0002V34.895Z" fill="#360000"/>
<path d="M2.04981 36.9473H0V39H2.04981V36.9473Z" fill="#360000"/>
<path d="M41.0002 36.9473H38.9502V39H41.0002V36.9473Z" fill="#360000"/>
</svg>
