<svg width="449" height="167" viewBox="0 0 449 167" fill="none" xmlns="http://www.w3.org/2000/svg">
<path d="M5.55672 5.55312H443.446L449 0H0V166.599L5.55672 161.013V5.55312Z" fill="#8C8C8C"/>
<path d="M443.446 5.55312V161.045H5.55672V161.013L0 166.599H449V0L443.446 5.55312V5.55312Z" fill="#191919"/>
<path d="M437.865 11.1015L443.451 5.54834L437.865 11.1015Z" fill="#8C8C8C"/>
<path d="M437.89 11.1015V155.454H11.12L5.55371 161.041H443.443V5.54834L437.858 11.1015H437.89Z" fill="#8C8C8C"/>
<path d="M11.1037 155.454V11.1015H437.858L443.443 5.54834H5.55371V161.008L11.1166 155.454H11.1037V155.454Z" fill="white"/>
<path d="M11.1167 155.453L5.55371 161.008V161.04L11.1201 155.453H11.1167Z" fill="white"/>
<path d="M437.879 11.1047L54.9014 54.911L437.879 11.1047Z" fill="#C0C0C0"/>
<path d="M11.1445 155.458H437.915V11.1047H437.882H11.1445V155.458Z" fill="#C0C0C0"/>
<path d="M11.1123 155.458H11.1253L11.1123 11.1047V155.458Z" fill="#C0C0C0"/>
<path d="M11.1123 155.456H11.1157L54.8756 54.9094L11.1123 155.456V155.456Z" fill="#C0C0C0"/>
<path d="M134.246 89.501L138.714 89.1104C138.925 90.9007 139.414 92.3737 140.179 93.5293C140.96 94.6686 142.164 95.5964 143.792 96.3125C145.42 97.0124 147.251 97.3623 149.285 97.3623C151.092 97.3623 152.687 97.0938 154.07 96.5566C155.454 96.0195 156.479 95.2871 157.146 94.3594C157.83 93.4154 158.172 92.39 158.172 91.2832C158.172 90.1602 157.846 89.1836 157.195 88.3535C156.544 87.5072 155.47 86.7992 153.973 86.2295C153.012 85.8551 150.888 85.2773 147.601 84.4961C144.313 83.6986 142.01 82.9499 140.691 82.25C138.982 81.3548 137.705 80.248 136.858 78.9297C136.028 77.5951 135.613 76.1058 135.613 74.4619C135.613 72.6553 136.126 70.9707 137.151 69.4082C138.177 67.8294 139.674 66.6331 141.644 65.8193C143.613 65.0055 145.802 64.5986 148.211 64.5986C150.864 64.5986 153.2 65.0299 155.218 65.8926C157.252 66.7389 158.815 67.9922 159.905 69.6523C160.996 71.3125 161.582 73.1924 161.663 75.292L157.122 75.6338C156.878 73.3714 156.048 71.6624 154.632 70.5068C153.232 69.3512 151.157 68.7734 148.406 68.7734C145.542 68.7734 143.45 69.3024 142.132 70.3604C140.83 71.402 140.179 72.6634 140.179 74.1445C140.179 75.4303 140.643 76.4883 141.57 77.3184C142.482 78.1484 144.858 79.0029 148.699 79.8818C152.557 80.7445 155.201 81.5013 156.634 82.1523C158.717 83.1126 160.255 84.3333 161.248 85.8145C162.241 87.2793 162.737 88.972 162.737 90.8926C162.737 92.7969 162.192 94.5954 161.102 96.2881C160.011 97.9645 158.44 99.2747 156.39 100.219C154.355 101.146 152.06 101.61 149.505 101.61C146.266 101.61 143.548 101.138 141.351 100.194C139.17 99.2503 137.452 97.8343 136.199 95.9463C134.962 94.042 134.311 91.8936 134.246 89.501ZM184.313 101V69.4326H172.521V65.209H200.891V69.4326H189.05V101H184.313ZM204.132 101L217.877 65.209H222.979L237.628 101H232.232L228.058 90.1602H213.092L209.161 101H204.132ZM214.459 86.3027H226.593L222.857 76.3906C221.718 73.3796 220.872 70.9056 220.318 68.9688C219.863 71.2637 219.22 73.5423 218.39 75.8047L214.459 86.3027ZM247.485 101V65.209H263.354C266.545 65.209 268.97 65.5345 270.63 66.1855C272.29 66.8203 273.617 67.9515 274.609 69.5791C275.602 71.2067 276.099 73.0052 276.099 74.9746C276.099 77.5137 275.277 79.654 273.633 81.3955C271.989 83.137 269.45 84.2438 266.016 84.7158C267.269 85.318 268.221 85.9121 268.872 86.498C270.256 87.7676 271.566 89.3545 272.803 91.2588L279.028 101H273.071L268.335 93.5537C266.951 91.4053 265.812 89.7614 264.917 88.6221C264.022 87.4827 263.216 86.6852 262.5 86.2295C261.8 85.7738 261.084 85.4564 260.352 85.2773C259.814 85.1634 258.936 85.1064 257.715 85.1064H252.222V101H247.485ZM252.222 81.0049H262.402C264.567 81.0049 266.26 80.7852 267.48 80.3457C268.701 79.89 269.629 79.1738 270.264 78.1973C270.898 77.2044 271.216 76.1302 271.216 74.9746C271.216 73.2819 270.597 71.8903 269.36 70.7998C268.14 69.7093 266.203 69.1641 263.55 69.1641H252.222V81.0049ZM297.724 101V69.4326H285.932V65.209H314.301V69.4326H302.46V101H297.724Z" fill="#292929"/>
</svg>
