<svg width="48" height="48" viewBox="0 0 48 48" fill="none" xmlns="http://www.w3.org/2000/svg">
<path d="M20.899 33.4452C20.899 33.7568 20.899 34.0384 20.899 34.3196C20.899 34.59 20.899 34.8604 20.899 35.1516C19.5342 35.1516 18.2074 35.1516 16.8538 35.1516C16.8538 33.0628 16.8538 30.978 16.8538 28.8556C17.2754 28.8556 17.693 28.8556 18.111 28.8556C18.555 28.8556 19.0022 28.8884 19.443 28.8488C20.4486 28.7584 21.3478 29.0316 22.2606 29.4444C26.6518 31.4292 31.1086 31.5212 35.5818 29.7292C37.3726 29.012 38.9302 27.936 40.1174 26.386C41.9854 23.9476 41.9506 21.1964 40.0202 18.8048C38.541 16.972 36.591 15.8324 34.3794 15.1408C30.2842 13.8596 26.2486 14.054 22.3346 15.8436C21.3474 16.2948 20.3726 16.558 19.2854 16.4832C18.4834 16.428 17.6742 16.4724 16.8486 16.4724C16.8486 14.358 16.8486 12.2796 16.8486 10.1736C18.1802 10.1736 19.517 10.1736 20.8954 10.1736C20.8954 10.7208 20.8954 11.274 20.8954 11.862C21.0158 11.8272 21.091 11.8136 21.1598 11.7844C24.4334 10.3924 27.8418 9.90356 31.3758 10.2628C34.7454 10.6052 37.8586 11.6536 40.603 13.6744C42.7274 15.2388 44.3554 17.2044 45.1058 19.7668C46.1618 23.372 45.3266 26.6076 42.9462 29.4532C40.8878 31.9136 38.2034 33.4336 35.1582 34.3136C30.3998 35.6884 25.7142 35.4468 21.133 33.5224C21.0726 33.4968 21.0078 33.4808 20.899 33.4452Z" fill="#171717"/>
<path d="M27.1142 1.83687C27.1142 1.23567 27.1142 0.692874 27.1142 0.125274C28.4798 0.125274 29.8146 0.125274 31.1698 0.125274C31.1698 2.20727 31.1698 4.28527 31.1698 6.40087C31.0514 6.40647 30.9314 6.41727 30.8114 6.41727C29.695 6.41847 28.579 6.42487 27.463 6.41207C27.2542 6.40967 27.0314 6.36487 26.8406 6.28087C25.3514 5.62767 23.8718 4.95207 22.259 4.64447C18.1758 3.86567 14.2798 4.31447 10.659 6.45407C9.23621 7.29487 8.05621 8.40607 7.25621 9.87407C6.03101 12.1225 6.36101 14.5769 8.16301 16.6693C9.66461 18.4133 11.5866 19.5089 13.757 20.1697C17.7274 21.3785 21.6374 21.1905 25.4614 19.5413C25.6806 19.4469 25.9022 19.3561 26.1134 19.2457C26.7726 18.9017 27.4598 18.7621 28.2118 18.7985C29.1874 18.8461 30.1666 18.8101 31.1674 18.8101C31.1674 20.9105 31.1674 22.9869 31.1674 25.0917C29.8338 25.0917 28.4982 25.0917 27.1222 25.0917C27.1222 24.5345 27.1222 23.9813 27.1222 23.3913C26.6642 23.5697 26.259 23.7449 25.8426 23.8877C20.2558 25.8037 14.7858 25.5705 9.49021 22.8949C7.07621 21.6753 5.07381 19.9429 3.78021 17.5289C1.80221 13.8405 2.04301 10.2233 4.35501 6.76007C5.75421 4.66407 7.68741 3.15007 9.95301 2.09407C15.5158 -0.499127 21.1526 -0.565526 26.8314 1.72647C26.903 1.75527 26.9754 1.78287 27.1142 1.83687Z" fill="#171717"/>
<path d="M16.1564 47.8033C15.626 47.9569 15.2984 47.7665 14.9796 47.3545C13.8792 45.9329 12.7352 44.5449 11.6072 43.1449C11.5368 43.0577 11.46 42.9761 11.336 42.8349C11.336 44.5329 11.336 46.1629 11.336 47.8181C10.9988 47.8181 10.698 47.8181 10.374 47.8181C10.374 45.5841 10.374 43.3493 10.374 41.1129C10.8496 41.0049 11.1944 41.0869 11.52 41.5109C12.6084 42.9273 13.748 44.3041 14.8692 45.6953C14.9588 45.8065 15.0556 45.9113 15.2108 46.0905C15.2108 44.3705 15.2108 42.7405 15.2108 41.0945C15.5452 41.0945 15.8376 41.0945 16.1564 41.0945C16.1564 43.3333 16.1564 45.5685 16.1564 47.8033Z" fill="#171717"/>
<path d="M34.6504 44.1189C35.666 45.3489 36.67 46.5649 37.7248 47.8425C37.3316 47.8425 37.0068 47.8597 36.6864 47.8325C36.586 47.8237 36.4808 47.7077 36.4032 47.6189C35.664 46.7697 34.9308 45.9153 34.1948 45.0629C34.1368 44.9957 34.074 44.9325 34.0076 44.8609C33.6104 45.2541 33.2184 45.6309 32.8432 46.0241C32.7776 46.0929 32.7624 46.2293 32.7608 46.3353C32.7524 46.8229 32.7572 47.3105 32.7572 47.8209C32.4372 47.8209 32.1372 47.8209 31.8164 47.8209C31.8164 45.5837 31.8164 43.3497 31.8164 41.0965C32.1172 41.0965 32.4092 41.0965 32.736 41.0965C32.736 42.3101 32.736 43.5321 32.736 44.8065C33.1728 44.3833 33.5736 44.0101 33.9576 43.6201C34.748 42.8181 35.5284 42.0061 36.3168 41.2021C36.3744 41.1433 36.4644 41.0865 36.542 41.0829C36.846 41.0693 37.1508 41.0773 37.5332 41.0773C36.5428 42.1229 35.6012 43.1161 34.6504 44.1189Z" fill="#171717"/>
<path d="M44.6853 47.8433C44.3001 47.8433 43.9945 47.8593 43.6921 47.8345C43.5885 47.8261 43.4721 47.7349 43.3977 47.6497C42.6329 46.7769 41.8753 45.8973 41.1153 45.0201C41.0721 44.9701 41.0245 44.9241 40.9413 44.8365C40.5505 45.2377 40.1657 45.6209 39.7993 46.0209C39.7353 46.0909 39.7285 46.2297 39.7269 46.3373C39.7197 46.8245 39.7237 47.3121 39.7237 47.8213C39.3981 47.8213 39.0985 47.8213 38.7793 47.8213C38.7793 45.5849 38.7793 43.3585 38.7793 41.1041C39.0745 41.1041 39.3753 41.1041 39.7093 41.1041C39.7093 42.3101 39.7093 43.5217 39.7093 44.7333C39.7349 44.7485 39.7601 44.7637 39.7857 44.7789C39.9617 44.6005 40.1389 44.4233 40.3137 44.2437C41.2337 43.2965 42.1601 42.3557 43.0669 41.3961C43.2877 41.1621 43.5061 41.0297 43.8325 41.0721C44.0193 41.0961 44.2121 41.0765 44.4937 41.0765C43.5029 42.1221 42.5697 43.1069 41.6121 44.1177C42.6237 45.3453 43.6273 46.5613 44.6853 47.8433Z" fill="#171717"/>
<path d="M18.2289 41.0935C19.8197 41.0935 21.3861 41.0935 22.9701 41.0935C22.9701 41.3559 22.9701 41.6027 22.9701 41.8971C21.7229 41.8971 20.4685 41.8971 19.1773 41.8971C19.1773 42.5667 19.1689 43.1895 19.1897 43.8115C19.1921 43.8767 19.3677 43.9883 19.4645 43.9899C20.3637 44.0039 21.2629 43.9983 22.1621 43.9983C22.2857 43.9983 22.4089 43.9983 22.5549 43.9983C22.5549 44.2691 22.5549 44.5139 22.5549 44.8019C21.4509 44.8019 20.3429 44.8019 19.1757 44.8019C19.1757 45.3027 19.1757 45.7631 19.1757 46.2239C19.1757 47.0039 19.1757 47.0039 19.9625 47.0039C20.9977 47.0039 22.0333 47.0039 23.0965 47.0039C23.0965 47.2839 23.0965 47.5471 23.0965 47.8275C21.4773 47.8275 19.8653 47.8275 18.2285 47.8275C18.2289 45.5903 18.2289 43.3571 18.2289 41.0935Z" fill="#171717"/>
<path d="M30.7784 47.8431C30.4528 47.8431 30.1708 47.8583 29.8924 47.8331C29.814 47.8259 29.7192 47.7127 29.678 47.6263C29.4884 47.2263 29.3068 46.8219 29.1392 46.4123C29.0604 46.2203 28.9576 46.1391 28.7372 46.1419C27.7244 46.1547 26.7108 46.1547 25.698 46.1419C25.4788 46.1391 25.3736 46.2171 25.2952 46.4111C25.1336 46.8107 24.9408 47.1983 24.782 47.5987C24.7084 47.7847 24.6116 47.8643 24.4072 47.8479C24.1836 47.8295 23.9572 47.8439 23.6768 47.8439C23.928 47.2867 24.1596 46.7723 24.3924 46.2583C25.1176 44.6551 25.8496 43.0547 26.562 41.4455C26.684 41.1695 26.8216 41.0143 27.1376 41.0743C27.2364 41.0931 27.344 41.0907 27.444 41.0743C27.6556 41.0399 27.7476 41.1523 27.8256 41.3259C28.628 43.1059 29.4352 44.8835 30.2412 46.6619C30.4132 47.0415 30.5864 47.4211 30.7784 47.8431ZM28.6732 45.3631C28.188 44.2631 27.7164 43.1939 27.2156 42.0591C26.7108 43.2071 26.2424 44.2723 25.7628 45.3631C26.7516 45.3631 27.6896 45.3631 28.6732 45.3631Z" fill="#171717"/>
<path d="M3.72852 47.0492C3.84452 46.8088 3.95292 46.5844 4.07452 46.332C4.82292 46.9104 5.66652 47.1564 6.59172 47.0844C6.87012 47.0628 7.15292 46.9912 7.41572 46.894C7.77852 46.7596 7.96892 46.4652 7.99052 46.0796C8.01172 45.7032 7.80132 45.4352 7.48652 45.2956C7.11572 45.1312 6.71492 45.034 6.32652 44.9092C5.81892 44.746 5.29012 44.6315 4.80772 44.4131C3.50132 43.8223 3.72092 42.1172 4.56772 41.5248C5.37332 40.9612 6.26972 40.9352 7.18812 41.0516C7.70772 41.1172 8.20652 41.2696 8.65252 41.604C8.54812 41.8548 8.44852 42.0932 8.33972 42.3548C7.64052 41.9536 6.91372 41.744 6.13412 41.8416C5.82772 41.88 5.49772 41.9679 5.24372 42.1331C4.66092 42.5123 4.68492 43.2767 5.29172 43.6135C5.63292 43.8027 6.03132 43.8932 6.40932 44.0108C6.85372 44.1492 7.31532 44.2379 7.74892 44.4031C8.41692 44.6575 8.89812 45.0912 8.93292 45.8724C8.96732 46.646 8.62892 47.2036 7.96212 47.5768C6.82852 48.21 4.65972 47.9492 3.72852 47.0492Z" fill="#171717"/>
</svg>
