<svg width="711" height="494" viewBox="0 0 711 494" fill="none" xmlns="http://www.w3.org/2000/svg">
<path d="M356.697 11.3911C355.982 24.7951 354.731 34.1779 353.302 35.8758C352.855 36.5013 351.604 36.8588 350.531 36.7694C348.834 36.5907 348.476 37.4843 346.957 44.1863C345.795 49.5479 345.438 53.6585 345.795 58.2159C346.242 64.1137 346.063 65.0073 344.097 67.9562C340.88 72.6923 339.719 77.3391 340.612 81.4496C340.97 83.3262 341.238 85.4708 341.149 86.1857C341.059 86.9006 340.88 90.7431 340.702 94.675C340.434 101.466 340.344 101.913 338.021 102.985C336.055 103.968 335.608 104.773 335.608 107.632C335.608 110.849 333.91 113.887 332.034 113.887C331.051 113.887 331.944 126.219 333.106 128.453C333.642 129.526 333.464 130.955 332.57 132.832C331.23 135.513 331.23 135.781 333.374 139.266C334.625 141.321 336.234 143.734 336.949 144.806C338.2 146.504 338.2 146.861 336.681 148.738L334.983 150.793L332.213 148.917C326.404 144.717 325.868 147.576 331.408 153.742C334.536 157.317 335.34 158.836 335.34 161.695C335.429 163.661 334.893 166.163 334.178 167.236C333.464 168.308 332.927 169.827 332.927 170.542C332.927 171.167 332.123 172.687 331.14 173.848C329.442 175.904 329.442 175.904 329.353 174.116C329.353 173.133 329.71 171.972 330.247 171.436C331.14 170.542 330.693 169.648 326.047 162.5C324.438 160.087 323.098 157.317 323.098 156.244C323.098 155.261 322.83 154.1 322.472 153.742C321.847 153.117 321.311 146.861 321.042 133.994C320.953 131.045 321.221 126.13 321.579 123.002C322.294 118.266 322.204 117.462 320.953 117.462C320.238 117.462 319.255 118.177 318.808 118.981C318.094 120.143 317.825 119.964 317.289 117.551C316.932 115.943 315.681 112.368 314.43 109.688C312.732 105.934 312.285 103.968 312.732 101.109C314.34 89.6708 314.43 86.99 312.911 85.3815C311.481 83.8623 311.481 83.5049 312.911 80.556C314.251 77.7858 314.34 76.6241 313.447 72.6029C311.481 63.5775 310.409 53.3011 310.677 47.2246C311.034 41.5055 310.855 41.0587 309.158 40.7906C306.298 40.3438 305.226 44.5438 305.226 56.1606C305.226 62.7733 304.868 66.5264 304.153 67.2413C302.545 68.8498 301.919 68.5817 301.383 65.6328C300.847 63.0414 298.166 61.7903 297.987 64.0243C297.987 64.6499 297.63 70.1008 297.273 76.088C296.647 86.7219 296.647 87.0793 293.877 89.9389C291.196 92.7984 291.107 93.0665 291.554 99.3217C292.179 107.096 291.464 110.313 289.23 110.313C286.013 110.313 285.298 112.547 287.264 116.39L289.051 119.964L286.46 123.27C284.941 125.147 283.779 127.381 283.779 128.185C283.779 129.079 283.154 130.24 282.439 130.866C281.634 131.491 281.277 132.743 281.634 133.994C281.903 135.155 281.724 136.317 281.188 136.585C280.652 136.942 280.205 138.372 280.205 139.802C280.205 143.376 278.418 146.951 276.63 146.951C274.664 146.951 273.056 145.253 273.681 143.734C273.95 143.108 272.877 140.874 271.269 138.908L268.409 135.334L272.52 130.687C274.754 128.096 276.63 125.594 276.541 125.058C276.541 124.611 275.737 121.93 274.843 119.249C273.771 115.853 272.788 114.334 271.805 114.424C270.018 114.602 270.018 114.066 271.715 110.045C273.503 105.666 273.413 104.058 271.269 104.058C270.107 104.058 269.124 104.951 268.499 106.471C267.873 108.258 267.337 108.526 266.622 107.811C264.924 106.113 262.601 106.56 261.082 108.973C259.294 111.653 256.435 112.19 257.775 109.509C258.848 107.543 257.865 103.522 255.273 99.143L253.575 96.1941L256.256 93.6026C261.171 88.9559 262.779 83.5049 259.205 83.5049C258.043 83.5049 257.865 82.6113 258.401 77.8752L258.937 72.2455L253.307 67.0626C249.733 63.8456 244.818 60.6286 240.35 58.5733C236.329 56.6968 232.844 54.6415 232.486 54.1053C232.129 53.5692 230.967 53.1224 229.805 53.1224C227.214 53.1224 225.427 50.9777 223.997 46.2416C223.461 44.097 222.478 41.9523 221.852 41.5055C221.227 40.9693 218.635 38.9141 216.133 36.8588C213.542 34.8035 211.218 32.5695 211.04 31.7652C210.861 30.961 210.414 26.0461 210.057 20.8633C209.699 15.6803 209.163 10.9442 208.716 10.2293C207.287 7.90598 206.304 10.3187 205.767 17.5569C205.41 21.6675 204.963 25.8674 204.606 27.0291C204.07 28.9057 203.891 28.8163 202.461 25.6887C201.568 23.8121 200.227 20.7739 199.423 18.8973C197.904 15.0548 196.474 14.608 195.67 17.7356C195.402 19.076 194.151 20.3271 192.542 20.8633C191.112 21.3101 189.951 22.1143 189.951 22.4717C189.951 22.9185 191.38 25.3313 193.078 28.0121C194.776 30.6035 196.206 33.195 196.206 33.8205C196.206 34.446 196.653 35.3396 197.1 35.7864C197.636 36.3226 198.44 39.5396 198.887 42.9353C199.334 46.331 200.138 51.2458 200.674 53.8372C201.478 57.7691 201.389 59.3776 200.227 63.0414C198.708 67.5094 198.976 69.4753 200.763 67.6881C203.176 65.2754 204.159 52.2288 202.372 47.0458C201.121 43.3821 201.657 41.5949 203.444 43.6501C204.07 44.5438 205.589 46.0629 206.75 47.1352C207.912 48.2076 209.699 50.5309 210.682 52.4075C211.755 54.1947 213.452 55.8925 214.704 56.25C216.133 56.6074 216.58 57.1436 216.133 57.8585C215.776 58.484 215.329 61.1648 215.24 63.8456C214.793 74.4795 214.346 77.7858 213.184 79.6624C212.112 81.3603 212.023 82.0751 213.095 84.5772C215.418 90.2069 215.329 93.6026 212.738 96.3728C210.504 98.7856 210.414 99.5004 212.023 103.79C212.291 104.415 211.844 104.951 211.129 104.951C209.074 104.951 208.448 106.381 209.61 108.526C210.414 109.956 210.325 110.313 209.163 110.313C206.929 110.313 207.644 114.87 210.504 119.16C213.542 123.538 213.81 125.594 211.844 127.649C211.04 128.453 210.861 129.168 211.397 129.526C212.916 130.419 212.38 134.977 210.504 137.389C208.18 140.338 208.27 141.5 211.04 142.483C212.916 143.198 213.274 143.823 212.827 145.61C212.559 146.772 212.648 148.023 213.184 148.291C214.972 149.364 213.989 150.525 211.397 150.525C208.091 150.525 207.823 152.581 210.861 154.636C213.006 155.976 213.095 156.066 211.665 159.104C210.146 162.142 210.146 162.142 213.006 165.091C214.614 166.699 215.865 168.576 215.865 169.202C215.865 169.827 216.58 171.793 217.384 173.491C218.814 176.618 218.814 176.708 216.491 178.406C215.15 179.389 214.078 180.908 214.078 181.801C214.078 182.695 211.844 185.465 209.163 187.878C201.389 194.937 197.993 199.942 197.993 204.141C197.993 206.733 197.546 207.895 196.206 208.61C195.312 209.146 193.436 210.933 192.095 212.72L189.683 215.848L191.202 220.226C192.453 223.801 192.542 225.141 191.738 228.358C190.666 232.201 191.291 242.388 192.453 241.226C193.168 240.601 194.419 228.716 194.687 220.763C194.866 215.49 194.955 215.401 199.602 211.558C202.193 209.414 204.695 207.895 205.142 208.163C206.482 208.967 207.019 215.312 206.125 219.333C205.499 222.282 205.499 223.443 206.304 223.98C207.912 224.962 208.448 223.175 209.61 213.078C210.325 206.644 211.218 202.89 212.38 201.193C213.363 199.852 213.989 197.708 213.899 196.367C213.631 193.686 214.167 193.418 225.159 190.559C227.482 189.933 230.967 188.146 232.754 186.627C234.542 185.197 237.848 183.231 240.082 182.427C245.622 180.282 247.946 178.495 246.426 177.512C245.533 176.887 245.712 176.529 247.32 176.172C248.392 175.814 249.643 175.546 250.09 175.546C250.448 175.546 250.716 179.657 250.805 184.661C250.805 192.703 251.877 201.818 252.503 200.567C252.682 200.299 253.039 193.865 253.307 186.269L253.843 172.508L256.971 171.882C258.669 171.525 260.456 171.436 260.903 171.704C261.35 172.061 261.528 183.321 261.26 200.031C260.992 215.312 260.992 228.626 261.439 229.609C262.065 231.307 263.137 210.486 263.673 186.895C263.762 180.64 264.12 175.189 264.477 174.921C264.745 174.563 265.013 173.312 265.013 171.972C265.013 169.291 266.443 167.504 268.677 167.504C269.481 167.504 271.179 166.61 272.52 165.627C276.988 162.142 276.63 166.342 272.073 171.525C268.945 175.099 268.499 179.657 270.375 190.737C271.894 199.584 271.894 209.146 270.375 213.524C269.481 216.116 269.124 221.209 269.303 231.843C269.571 252.843 270.733 259.098 273.413 254.809C274.307 253.468 273.145 239.886 271.09 227.375C270.286 222.282 270.464 220.405 272.52 211.558C275.022 200.835 275.379 197.439 273.95 196.546C272.877 195.831 272.788 188.325 273.86 187.699C274.307 187.431 274.932 186.091 275.29 184.75C275.558 183.499 276.63 181.355 277.613 180.193C278.507 178.942 279.311 177.244 279.311 176.35C279.311 175.01 279.937 174.653 282.26 174.831L285.12 175.099L284.851 170.185C284.762 166.878 285.388 162.857 286.996 157.763C289.051 151.24 289.498 150.436 290.66 151.598C292.626 153.653 293.519 158.925 293.609 168.308C293.609 174.563 293.877 176.529 294.592 175.814C295.217 175.189 295.664 170.631 295.753 164.644C295.932 155.708 296.2 154.1 298.166 150.793C299.596 148.202 301.115 146.861 302.813 146.415C304.243 146.147 305.583 146.147 305.851 146.415C307.192 147.666 308.085 156.512 308.175 168.844C308.353 180.55 308.085 183.052 306.298 188.414C303.617 196.814 303.707 200.656 306.924 205.035C310.409 209.861 311.302 217.903 309.336 228.179C307.728 236.669 307.549 241.673 308.8 241.673C311.034 241.673 311.838 237.115 312.196 221.745L312.553 205.839L310.051 202.265C307.281 198.244 307.192 200.299 311.034 182.695C311.749 179.478 312.374 175.189 312.374 173.044C312.374 170.989 312.821 169.291 313.268 169.291C313.804 169.291 314.162 169.827 314.162 170.542C314.162 171.167 315.323 174.295 316.753 177.423C319.613 183.767 321.311 190.827 321.311 196.099C321.311 199.048 321.579 199.673 323.098 199.673C324.706 199.673 324.796 199.227 324.259 193.597C323.723 188.146 323.813 187.699 325.153 188.861C325.957 189.486 326.851 191.363 327.208 192.971C327.566 194.937 328.37 196.099 329.532 196.367C331.051 196.814 331.23 197.261 330.604 199.405C329.174 204.052 330.247 226.571 332.123 230.503C333.285 233.005 333.374 232.29 333.642 221.299C333.732 214.865 334.268 209.503 334.625 209.503C335.787 209.503 339.808 214.507 340.523 216.652C340.791 217.635 341.327 218.439 341.685 218.439C342.042 218.439 342.4 235.864 342.578 257.132C342.757 286.532 343.204 297.255 344.187 301.991C344.902 305.387 345.706 311.017 345.974 314.502C346.153 317.897 347.046 324.331 347.851 328.621C349.191 335.412 349.191 337.02 348.208 340.684C346.153 347.654 345.974 350.067 347.314 349.62C347.94 349.442 349.012 346.314 349.727 342.561C350.799 337.199 350.889 334.876 349.995 330.14C347.136 314.323 346.063 298.595 345.885 269.732C345.795 253.379 345.438 239.707 345.17 239.26C344.812 238.724 344.991 232.379 345.348 225.141C346.153 212.541 346.063 211.737 344.366 209.414C342.757 207.269 342.578 205.929 342.936 198.422C343.114 193.776 343.561 189.665 343.919 189.308C344.276 188.95 345.348 189.397 346.331 190.291C347.94 191.81 348.119 193.061 348.119 205.839C348.119 218.886 348.834 223.622 350.263 221.209C350.621 220.673 351.068 213.882 351.246 206.018C351.604 190.112 352.497 180.908 353.57 180.908C354.285 180.908 354.553 181.712 356.161 188.682C356.787 191.274 357.591 193.418 357.948 193.418C358.931 193.418 359.467 181.891 358.574 180.997C358.216 180.64 358.484 179.835 359.199 179.21C360.182 178.406 360.629 178.406 361.255 179.299C361.612 179.925 362.238 199.942 362.506 223.801C362.952 259.545 363.31 268.213 364.561 273.396C365.365 276.792 365.812 280.813 365.544 282.332C365.276 283.762 364.74 289.213 364.204 294.306C363.578 301.812 363.667 304.851 364.74 309.497C365.901 314.412 365.991 319.059 365.455 336.574C364.918 355.518 365.008 357.841 366.259 357.841C368.314 357.841 369.029 348.28 368.225 331.033C367.778 322.902 367.421 306.012 367.331 293.502C367.242 280.991 366.706 268.481 366.169 265.8C364.293 256.417 364.204 249.09 365.008 215.043C365.812 182.606 365.991 180.729 367.778 177.78C371.442 171.793 375.91 173.223 377.161 180.729C377.786 184.482 377.786 184.572 375.463 183.946C373.497 183.499 373.14 183.678 373.14 185.286C373.14 186.359 373.765 188.414 374.48 189.844C375.731 192.257 375.731 192.703 374.391 194.669C372.067 198.333 374.748 203.248 379.037 203.248C380.914 203.248 381.182 202.801 381.182 200.12C381.182 198.333 381.808 195.742 382.522 194.312C383.773 191.899 383.952 191.81 386.186 192.971C387.527 193.597 388.867 194.669 389.314 195.295C390.118 196.725 389.493 213.792 388.242 223.354C387.348 229.877 387.437 230.771 389.135 234.077C390.386 236.311 391.012 239.26 391.012 242.388C391.012 245.337 391.369 246.945 391.905 246.588C393.335 245.694 392.978 236.669 391.369 232.916C390.207 229.967 390.118 227.911 391.101 215.49C391.637 207.716 391.905 198.601 391.727 195.205C391.28 189.397 391.369 188.861 393.335 187.61C395.926 185.912 396.195 182.695 393.692 182.069C391.548 181.533 391.369 179.121 393.156 175.636C393.871 174.295 394.944 171.167 395.48 168.755C397.178 161.517 397.088 161.695 398.965 163.393C400.841 165.091 403.701 164.376 403.343 162.231C403.075 160.355 404.237 158.568 405.756 158.568C407.275 158.568 408.616 160.891 409.331 164.912C410.224 170.006 410.939 169.112 410.492 163.304L410.135 157.853L414.603 156.959C417.552 156.334 419.518 156.334 420.054 156.87C420.59 157.406 421.126 160.802 421.394 164.555C421.93 172.508 423.807 174.653 424.254 167.772L424.522 163.482L426.398 167.057C428.811 171.704 431.76 181.891 432.386 187.878C432.743 190.469 433.994 194.937 435.245 197.797C436.585 200.656 438.105 206.107 438.73 209.95C439.356 214.329 440.249 217.099 440.964 217.367C442.036 217.724 442.126 216.473 441.59 210.754L440.964 203.695L444.181 206.822C445.968 208.52 448.113 211.022 448.917 212.363C450.704 215.312 451.419 215.49 452.76 212.988C453.564 211.469 453.207 210.218 450.794 205.661C449.185 202.622 446.594 198.512 444.985 196.546C442.215 193.15 442.126 192.793 443.019 188.95C443.556 186.716 444.36 184.035 444.807 183.052C446.058 180.282 443.556 172.24 440.071 167.861C438.551 165.985 436.764 162.946 435.96 161.248C434.262 157.049 431.492 144.896 430.956 139.087C430.598 134.708 430.688 134.44 432.654 134.44C433.815 134.44 435.334 135.334 436.049 136.406C437.3 138.193 437.3 138.64 436.139 140.428C434.173 143.466 434.441 144.627 438.373 149.185C440.339 151.419 441.947 153.563 441.947 153.832C441.947 154.1 441.054 155.529 439.981 156.959C437.658 160.355 438.462 161.963 443.288 163.661C447.577 165.091 451.509 168.755 453.207 172.687C453.832 174.384 455.441 176.887 456.692 178.316C459.194 181.444 460.534 185.912 460.623 191.72C460.623 194.044 461.249 197.439 461.964 199.316C465.27 207.805 467.951 235.328 468.13 263.566C468.398 289.213 469.381 301.723 472.33 314.859C474.206 323.08 476.44 327.012 475.636 320.757C473.849 306.102 472.24 287.872 472.24 281.438C472.24 278.936 471.793 276.702 471.168 276.345C470.364 275.898 470.006 269.553 469.828 254.005C469.291 210.665 469.47 205.124 471.793 193.418C472.508 189.754 473.134 185.018 473.223 182.963C473.223 180.908 473.67 178.942 474.117 178.674C474.653 178.316 475.01 179.21 475.01 180.729C475.01 182.159 475.815 184.035 476.798 184.929C478.049 186.001 478.406 187.163 478.049 188.593C477.423 191.095 479.478 191.542 481.266 189.397C482.159 188.325 481.891 187.342 480.015 184.035C477.781 180.282 477.691 179.925 478.942 176.976C479.747 174.921 480.193 171.257 480.104 166.878C480.015 161.338 480.372 159.193 481.891 156.334C484.304 151.776 487.074 149.095 487.968 150.525C488.325 151.151 488.504 170.185 488.415 192.882C488.146 231.933 488.951 267.319 490.112 266.158C490.559 265.711 490.738 253.737 491.095 200.12C491.095 197.171 491.095 183.321 491.095 169.291C491.095 153.027 491.453 142.215 492.078 139.355C492.614 136.853 493.151 132.653 493.24 129.972C493.419 122.555 491.363 123.538 487.342 132.653C485.555 136.764 483.589 140.338 483.053 140.517C482.427 140.785 481.266 142.125 480.283 143.644C479.121 145.7 477.602 146.683 474.832 147.398L470.989 148.291V152.759C470.989 155.44 470.453 158.032 469.559 159.283C468.13 161.248 468.13 161.248 467.504 156.602C466.968 153.027 466.164 151.151 464.019 148.917L461.249 146.057L462.857 141.589C464.108 138.015 464.287 135.781 463.84 130.24C463.036 121.215 461.964 119.16 461.338 125.504C461.07 128.185 460.892 132.206 460.892 134.44C460.981 136.674 460.713 141.232 460.266 144.538L459.551 150.615L457.406 148.559C455.619 146.861 455.351 146.057 455.887 142.751C456.423 139.266 456.245 138.908 454.1 137.925C452.849 137.3 451.777 136.406 451.777 135.781C451.777 135.245 450.347 132.921 448.56 130.598C445.522 126.666 445.432 126.487 446.862 124.253C447.756 122.913 448.649 118.713 449.096 113.441C449.632 108.705 450.168 104.505 450.436 103.968C450.794 103.522 452.134 103.164 453.475 103.164C454.815 103.164 456.334 102.717 456.96 102.092C458.121 100.93 458.211 101.02 460.266 109.419C462.589 118.445 463.215 118.445 462.679 109.598C462.232 101.198 462.857 96.9983 464.198 99.5898C464.645 100.305 465.181 102.36 465.538 104.147C465.896 106.024 466.968 108.526 467.951 109.777C469.559 111.832 469.738 112.904 469.291 117.73C468.934 120.768 468.934 123.985 469.291 124.879C470.274 127.56 472.33 124.789 472.33 120.679C472.33 114.781 473.134 113.173 476.172 112.458C478.496 112.011 479.21 112.279 481.176 114.692C483.768 117.819 485.019 118.087 486.627 116.121C488.325 114.066 490.738 114.513 492.704 117.194C494.402 119.428 494.58 119.517 495.206 118.087C496.01 115.853 493.329 110.224 491.095 109.688C489.934 109.33 489.04 107.99 488.415 105.488C486.538 98.16 484.661 94.2281 482.07 92.1729C479.389 90.1176 479.389 89.8495 478.853 80.0198C478.317 69.6541 477.155 67.5094 475.547 73.9433C474.117 79.6624 471.079 77.7858 469.649 70.1902C469.202 67.5988 468.487 65.0073 468.13 64.4711C467.772 63.8456 467.236 59.8244 466.968 55.4457C466.7 49.9948 466.164 47.3139 465.36 47.0458C464.734 46.8671 463.93 47.4926 463.662 48.565C463.215 50.1735 461.606 51.3351 461.606 49.9054C461.606 46.7778 457.675 24.7057 456.96 23.8121C455.351 21.9356 454.458 24.2589 454.458 30.3354C454.458 33.2843 453.653 39.5396 452.67 44.1863C451.687 48.8331 450.883 53.7479 450.883 55.0883C450.883 56.4287 450.436 57.7691 449.9 58.0372C449.364 58.3946 449.185 60.0031 449.543 62.0584C449.9 64.2031 449.721 66.169 449.007 67.2413C448.113 68.6711 448.113 69.5647 448.917 71.4413C450.526 74.9263 450.258 76.7135 448.024 77.6965C446.326 78.4114 446.058 79.2156 446.236 81.8964C446.415 83.8623 445.879 86.1857 445.075 87.4368C444.092 88.8665 443.824 90.5644 444.181 92.6197C444.985 96.8196 441.679 104.058 438.998 104.058C437.122 104.058 437.032 104.326 437.3 111.117C437.658 117.551 437.479 118.266 435.871 118.713C434.977 119.07 433.458 120.053 432.564 121.036C431.671 122.019 429.883 122.824 428.454 122.824C426.22 122.824 426.041 122.466 425.505 118.534C425.147 116.211 424.701 98.5175 424.432 79.2156C423.896 43.5608 423.539 40.7013 420.769 47.8501C419.696 50.6203 419.607 49.9948 420.054 41.6842C420.411 34.2673 420.322 32.5695 419.25 32.5695C417.552 32.5695 416.926 34.5354 416.926 40.6119C416.926 43.3821 416.211 48.1182 415.228 50.9777C414.335 53.9266 413.352 60.6286 412.994 66.169C412.279 78.4114 410.939 83.2368 405.756 91.1899C402.539 96.1941 401.735 98.16 401.735 101.466C401.735 107.007 399.858 112.994 396.373 118.266C394.05 122.019 393.692 123.181 394.229 126.13C395.033 130.598 396.105 132.653 397.803 132.653C398.965 132.653 398.965 132.921 397.803 135.155C397.088 136.585 395.837 138.193 395.122 138.819C394.318 139.534 393.692 140.964 393.692 142.125C393.692 147.219 379.931 155.887 371.978 155.887C368.046 155.887 367.689 156.066 365.455 159.64C362.863 163.751 363.399 163.84 359.289 158.121C358.038 156.334 357.948 156.334 356.608 158.032C355.893 159.014 355.268 160.802 355.268 162.053C355.268 165.627 354.016 166.968 351.336 166.253C349.102 165.717 349.012 165.448 349.012 159.64C349.012 156.334 349.638 151.24 350.353 148.47C352.14 141.5 352.051 139.981 349.459 135.423C346.957 131.134 346.51 126.845 348.476 125.772C349.37 125.236 349.817 122.109 350.085 113.887C350.353 106.113 350.889 101.913 351.872 100.037C354.821 94.3175 356.161 89.1346 355.268 86.0964C354.731 84.1304 354.731 82.79 355.357 82.0751C355.893 81.4496 356.072 80.0198 355.714 79.0369C354.553 75.2838 356.25 68.1349 358.842 65.7222C361.88 62.952 364.204 58.3946 364.204 55.5351C364.204 54.3734 363.578 51.2458 362.774 48.6543C361.433 44.1863 361.255 43.9182 360.093 45.4374C358.931 47.0458 358.842 47.0458 358.306 45.6161C357.948 44.7225 357.859 34.1779 358.127 22.2036C358.663 -1.20877 357.68 -8.17889 356.697 11.3911ZM457.764 40.7906C457.496 41.4161 457.317 40.9693 457.317 39.7183C457.317 38.4673 457.496 38.0204 457.764 38.5566C457.943 39.1821 457.943 40.2545 457.764 40.7906ZM232.397 75.6412C232.665 76.8029 232.933 82.3432 233.112 87.9729C233.291 96.909 233.469 98.2494 234.899 98.5175C236.239 98.7856 236.418 97.9813 236.418 90.2963C236.418 81.8964 237.49 78.7688 239.01 82.79C239.993 85.2028 240.886 83.5943 240.618 79.9305C240.529 78.5901 240.976 77.6071 241.869 77.4284C243.031 77.2497 243.388 78.6794 243.835 86.7219C244.192 91.9941 244.461 100.215 244.461 105.041V113.798L239.814 113.619C235.256 113.441 235.078 113.53 234.631 116.121C234.273 117.998 233.648 118.802 232.397 118.802C230.967 118.802 230.52 117.998 230.074 114.692C229.716 112.458 228.376 108.794 227.035 106.739C224.533 102.807 224.533 102.807 226.052 98.6068C226.946 96.2834 227.303 93.5133 227.035 92.1729C226.678 90.8325 227.035 88.8665 227.84 87.2581C228.822 85.3815 229.091 83.3262 228.644 79.9305C228.286 76.4454 228.465 75.105 229.359 74.4795C231.325 73.3178 231.861 73.4966 232.397 75.6412ZM458.479 95.7473C458.836 97.4451 458.747 98.6962 458.211 98.6962C457.317 98.6962 456.245 95.7473 456.245 92.8878C456.245 90.3857 457.764 92.3516 458.479 95.7473ZM461.07 93.7814C461.338 94.4962 461.16 95.1218 460.713 95.1218C460.177 95.1218 459.819 94.4962 459.819 93.7814C459.819 93.0665 459.998 92.4409 460.177 92.4409C460.355 92.4409 460.713 93.0665 461.07 93.7814ZM417.016 111.117C417.105 114.513 416.747 116.211 415.586 117.283C414.067 118.713 414.067 118.624 414.603 114.424C414.871 112.011 415.139 108.794 415.139 107.364C415.139 102.449 416.926 106.024 417.016 111.117ZM305.583 123.181C306.209 127.381 305.494 131.76 304.243 131.76C303.796 131.76 303.438 130.24 303.438 128.274C303.438 126.398 303.17 122.913 302.902 120.5C302.455 116.568 302.545 116.3 303.707 117.73C304.421 118.624 305.315 121.036 305.583 123.181ZM412.19 125.951C411.833 128.185 412.011 131.045 412.637 132.385C413.62 134.887 413.62 134.798 414.424 130.419C415.496 124.521 416.658 123.538 417.373 127.828C417.641 129.794 418.535 134.083 419.25 137.389C420.054 140.785 420.411 143.734 420.143 144.091C419.786 144.359 418.356 143.466 416.926 142.036C414.692 139.891 413.888 139.623 412.637 140.338C410.85 141.5 405.309 140.964 405.309 139.623C405.309 139.176 405.935 137.657 406.65 136.228C407.365 134.798 408.437 131.491 408.973 128.9C410.582 121.483 413.084 119.16 412.19 125.951ZM257.418 123.717C257.775 124.253 257.507 125.236 256.971 125.951C255.631 127.56 256.077 129.883 259.026 136.406L261.35 141.5L258.848 143.555C257.418 144.717 255.541 146.057 254.648 146.683C253.039 147.755 253.039 147.844 255.094 149.632C256.256 150.615 257.686 151.419 258.401 151.419C259.205 151.419 259.652 152.491 259.652 154.546C259.652 156.244 260.099 157.674 260.545 157.674C261.082 157.674 261.439 158.032 261.439 158.389C261.439 159.283 253.129 162.142 250.537 162.142C249.554 162.142 247.499 163.125 246.069 164.376C244.639 165.627 243.031 166.431 242.584 166.074C242.137 165.806 241.78 159.64 241.78 152.402C241.78 142.483 241.422 138.283 240.439 135.87C239.01 132.385 239.278 130.866 241.333 130.866C242.584 130.866 243.031 131.76 244.014 136.853C244.729 140.517 247.141 140.874 247.141 137.3C247.231 134.083 250.09 127.828 252.86 125.058C255.273 122.645 256.524 122.287 257.418 123.717ZM300.758 130.866C300.758 132.117 297.183 135.602 296.468 134.977C295.664 134.172 298.256 129.972 299.596 129.972C300.221 129.972 300.758 130.33 300.758 130.866ZM238.563 143.734C239.456 152.044 239.188 167.325 238.205 167.951C237.759 168.219 237.312 167.861 237.312 167.146C237.312 165.448 234.542 165.27 233.022 166.789C231.503 168.308 231.593 164.644 233.38 158.568C235.525 151.151 235.793 149.006 234.631 148.291C234.095 147.934 232.933 148.291 232.039 149.095C229.805 151.151 229.627 150.972 229.984 146.951C230.163 144.896 229.895 142.751 229.269 142.036C227.214 139.534 228.822 138.193 233.559 138.283L238.027 138.462L238.563 143.734ZM382.969 171.078C384.042 171.704 383.863 172.061 382.076 172.687C379.305 173.759 375.642 172.329 377.697 170.989C379.305 170.006 381.271 170.006 382.969 171.078ZM339.987 192.882C340.791 193.776 340.791 194.312 340.076 194.759C339.451 195.205 339.272 196.635 339.629 198.869C339.987 200.746 339.898 202.801 339.54 203.337C338.557 204.946 335.698 198.869 335.608 194.937C335.608 192.257 335.966 191.631 337.306 191.631C338.2 191.631 339.451 192.167 339.987 192.882Z" fill="#7B0100"/>
<path d="M234.631 104.505C234.631 105.309 235.078 105.845 235.614 105.666C236.15 105.488 236.597 104.951 236.597 104.505C236.597 104.058 236.15 103.522 235.614 103.343C235.078 103.164 234.631 103.7 234.631 104.505Z" fill="#7B0100"/>
<path d="M87.7223 2.81238C87.4542 3.70596 86.8287 10.3186 86.3819 17.4675C85.9351 24.7057 85.1308 31.3184 84.5947 32.3013C84.1479 33.2843 82.45 34.6247 80.9309 35.2502C78.1607 36.4119 78.0714 36.5013 78.6075 40.9693C80.5734 56.6967 79.6798 67.7774 76.3735 71.0837C74.4969 72.9603 73.4246 77.5177 72.4417 87.9729C72.0842 91.6366 71.28 96.0153 70.5651 97.7132C69.8502 99.3216 69.314 101.734 69.314 103.075C69.2247 104.326 68.6885 106.381 67.9736 107.632C67.2587 108.883 66.7226 111.385 66.6332 113.262C66.6332 115.138 65.5609 118.713 64.2205 121.304C62.9694 123.896 61.0035 128.185 59.8418 130.866C58.5908 133.904 57.6972 135.245 57.3397 134.44C57.0717 133.725 56.7142 128.096 56.5355 121.93C56.3568 115.317 55.5525 108.615 54.7483 105.398C53.4079 100.751 53.4079 98.8748 54.3015 91.2792C55.1951 84.3984 55.1057 82.1644 54.3015 81.0027C50.9058 76.2666 50.2803 73.2284 49.8335 57.5903L49.476 41.9522L46.8846 39.5395C44.7399 37.5736 44.2931 36.4119 44.2931 33.1056C44.2931 30.9609 43.9357 28.1014 43.3995 26.8503C41.791 22.561 40.7187 24.3482 40.7187 31.229C40.7187 35.0715 40.3613 37.931 39.8251 37.931C39.3783 37.931 38.9315 37.4842 38.9315 37.0374C38.9315 35.4289 36.7868 36.1438 33.8379 38.6459L30.889 41.0586L32.4082 49.3692C33.8379 57.0542 33.8379 57.8584 32.3188 62.5051C30.9784 66.8838 30.9784 67.5987 32.2295 70.0114C34.1954 73.8539 33.9273 75.373 30.4422 80.824C27.0465 86.1857 26.8678 87.3473 28.387 95.6579C29.1912 100.394 29.1018 102.807 27.8508 110.492C26.9572 115.585 25.3487 122.109 24.187 125.057C23.0253 128.006 21.4168 133.636 20.5232 137.568C19.719 141.5 18.1999 146.236 17.3063 148.023C16.3233 150.078 15.8765 152.312 16.2339 153.563C16.5914 154.993 16.2339 156.602 15.3403 157.853C14.5361 158.925 13.9106 161.606 13.9106 163.751C13.9106 167.861 12.9276 170.363 10.2468 173.312C9.35318 174.295 8.28086 177.691 7.7447 180.729C7.20853 184.214 5.68941 188.414 3.9022 191.452L1.04266 196.546L0.953304 211.737C0.863943 220.048 0.506501 228.537 0.14906 230.503C-0.387103 233.988 0.595862 237.384 1.93627 236.132C2.56179 235.418 4.25964 216.026 4.43836 206.822L4.52772 201.014H7.20853C9.71063 201.014 9.88935 201.193 9.62127 203.873C9.35318 206.286 9.62127 206.822 11.1404 206.822C13.6425 206.822 14.1786 208.163 13.017 211.737C11.5872 216.026 11.2298 240.6 12.5702 243.103C13.3744 244.711 13.6425 243.728 13.8212 237.384C14.1786 228.179 14.1786 224.962 13.7318 218.707C13.5531 215.043 13.9106 213.614 15.5191 211.29C16.8595 209.503 17.3956 207.895 17.0382 207.001C16.6807 206.197 16.2339 203.248 16.1446 200.567C15.8765 196.278 16.1446 195.295 18.5573 192.346C22.3104 187.52 23.2041 188.682 22.4892 197.797C21.0594 217.099 20.97 220.673 21.7743 219.333C22.2211 218.618 22.8466 214.597 23.2041 210.486C23.5615 206.375 24.187 202.265 24.6338 201.371C25.17 200.478 25.5274 195.652 25.5274 190.559V181.265L28.655 178.227C31.4252 175.546 31.7827 174.652 31.6933 171.078C31.6039 168.844 31.872 164.644 32.2295 161.606C32.6763 158.031 32.5869 155.529 31.872 154.278C30.9784 152.58 31.0678 152.134 33.1231 151.24C35.6251 150.168 36.072 148.023 34.0167 147.308C32.0507 146.504 32.3188 143.376 34.3741 143.376C37.2336 143.376 38.2166 145.789 38.7528 153.832C39.557 167.593 40.8974 158.836 40.7187 140.696C40.4506 121.572 40.4506 121.84 41.791 124.164C42.4165 125.147 43.1314 129.525 43.3995 133.993C43.9357 141.053 44.2931 142.572 46.8846 146.504C49.6547 150.793 49.7441 151.24 49.2079 157.048C48.6718 162.41 48.8505 163.482 50.7271 166.431C52.5143 169.38 52.7824 170.81 52.7824 179.567C52.693 184.929 52.4249 191.095 52.0675 193.15C51.71 195.295 51.7994 196.993 52.2462 196.993C53.3185 196.993 56.2674 177.065 55.6419 173.759C55.1951 171.525 55.3738 171.078 56.7142 171.078C59.2163 171.078 60.378 169.112 61.2716 163.482C61.9865 159.282 67.6162 146.951 68.8672 146.951C69.046 146.951 68.9566 150.704 68.6885 155.172C68.4204 159.729 68.5098 170.721 68.9566 179.567L69.6715 195.652L70.3864 177.333C70.7438 167.236 71.1906 153.385 71.3693 146.504C71.7268 134.887 71.9055 133.636 74.3182 128.811C75.6586 126.04 77.0884 123.717 77.3565 123.717C77.6246 123.717 77.6246 126.308 77.5352 129.525C77.3565 132.832 77.4458 136.138 77.8033 136.942C78.3394 138.372 78.5182 138.283 79.6798 136.764C80.5734 135.513 80.9309 132.474 80.9309 126.577V118.087L82.9862 120.679C85.5776 123.985 86.2032 134.708 84.2372 141.589C83.433 144.181 83.0755 146.772 83.3436 147.487C83.6117 148.202 84.0585 151.597 84.4159 155.172C84.684 159.014 85.3989 161.695 86.1138 161.963C86.8287 162.142 87.1861 161.338 87.1861 159.551C87.1861 158.121 87.5436 156.691 87.9904 156.423C89.4201 155.529 89.8669 158.657 88.884 162.142C88.1691 164.644 88.1691 167.414 88.884 172.955C90.135 182.337 91.9222 235.239 91.4754 251.771C91.2967 261.779 91.3861 263.745 92.369 262.494C93.1733 261.332 93.4414 252.932 93.4414 227.911C93.4414 209.682 93.7988 194.222 94.2456 193.508C95.586 191.452 100.501 198.959 102.914 206.644C104.879 213.167 106.131 259.992 104.522 269.106C102.914 278.489 102.914 289.838 104.611 292.072C105.326 293.055 105.952 295.11 105.952 296.719C105.952 298.327 106.309 299.846 106.756 300.204C107.292 300.472 107.828 296.54 108.007 290.642C108.275 285.102 108.901 277.149 109.526 272.949C110.33 266.872 110.33 262.583 109.437 251.949C108.096 236.847 108.096 211.916 109.437 204.588C110.33 200.031 110.062 198.959 106.845 189.04C104.879 183.231 103.271 177.869 103.271 177.244C103.271 176.708 102.199 174.027 100.948 171.436C99.2498 167.95 98.5349 164.733 98.1775 159.282C97.82 155.172 97.1051 151.061 96.569 150.078C94.7818 147.308 93.9775 138.193 95.3179 136.585C96.9264 134.708 95.7647 114.87 93.8882 110.849C92.7265 108.526 92.6371 107.364 93.352 105.934C94.603 103.611 94.603 100.215 93.2626 98.8748C92.5477 98.1599 92.369 93.4238 92.5477 82.8793C93.0839 55.1776 92.7265 41.5054 91.2967 40.165C89.5095 38.3778 88.6159 25.5099 89.2414 12.1952C89.5989 5.85062 89.5095 1.29324 88.9733 1.29324C88.5265 1.29324 87.9904 2.00812 87.7223 2.81238ZM95.2286 182.516C95.2286 184.84 92.9946 182.963 92.7265 180.372C92.5477 177.869 92.5477 177.869 93.8882 179.478C94.603 180.461 95.2286 181.801 95.2286 182.516Z" fill="#7B0100"/>
<path d="M586.263 10.2293C583.761 14.2505 583.583 16.7526 585.012 28.3695C586.085 36.1438 585.995 36.4119 584.119 37.8417C582.242 39.2715 582.242 39.4502 583.493 43.0246C584.655 46.2416 584.655 46.8671 583.493 47.8501C582.778 48.3862 582.242 49.3692 582.242 50.0841C582.242 50.7096 581.438 51.6926 580.455 52.2287C578.31 53.3904 578.221 55.1776 580.097 58.1265C581.527 60.2711 581.527 60.5392 579.829 62.8626C578.578 64.4711 578.132 66.0796 578.4 67.7774C578.757 69.3859 578.489 70.5476 577.685 71.0838C576.434 71.7986 575.987 76.7135 576.076 89.1346C576.076 93.692 573.932 102.985 571.43 109.419C570.983 110.67 569.196 112.458 567.498 113.351C563.834 115.317 563.208 116.926 564.37 120.947C565.085 123.449 564.817 124.521 562.94 127.828C560.885 131.313 560.617 132.832 560.438 140.874C560.349 148.47 559.902 150.793 558.294 153.832C556.149 158.031 555.345 158.389 553.647 156.334C552.038 154.457 550.43 154.636 548.732 156.959C547.481 158.746 546.498 159.014 539.26 159.372L531.217 159.64L529.073 163.929C526.213 169.559 525.409 169.916 524.158 166.342L523.175 163.482L520.673 166.521L518.081 169.648L517.456 166.789C517.188 165.18 516.205 163.572 515.49 163.125C514.06 162.41 514.149 161.159 515.669 156.155C516.115 154.725 515.669 153.563 513.881 151.776C512.184 150.078 511.647 148.917 512.094 147.487C512.452 146.504 513.077 141.41 513.524 136.228C513.971 131.045 514.596 125.057 514.864 123.002C515.222 120.589 515.043 118.713 514.418 118.087C512.094 115.764 514.686 108.079 519.511 102.896C521.745 100.573 521.745 100.305 520.405 97.9813C517.724 93.3345 516.741 86.7218 517.724 80.1985C518.26 76.8028 518.886 71.7093 519.243 68.7604C519.511 65.8115 520.762 61.2541 522.013 58.6627C526.034 50.1734 525.856 36.4119 521.834 39.8076C520.137 41.2374 519.958 40.2544 519.332 28.5482C519.064 23.0972 518.617 17.3781 518.26 15.859C517.635 12.642 516.115 12.7314 516.115 15.9484C516.115 17.0207 515.669 18.3611 515.043 18.9866C514.507 19.5228 513.881 21.9355 513.792 24.2589C513.613 26.5823 513.077 30.9609 512.541 33.9098C512.005 36.8587 511.379 41.6842 511.022 44.6331C510.486 50.3521 509.681 51.9606 506.733 53.1223C505.035 53.7478 504.856 54.3734 505.213 59.2882C505.571 64.6498 505.571 64.7392 503.247 64.7392C500.209 64.7392 499.405 66.7945 501.371 69.7433C502.711 71.888 502.801 72.6923 501.818 77.2496C501.192 80.1092 501.013 84.2198 501.282 86.5431C501.55 88.7771 502.086 92.5303 502.354 94.7643C502.711 97.5345 502.443 100.037 501.371 102.807C500.031 106.292 500.031 106.917 501.282 108.615C502.443 110.402 502.443 110.849 501.192 113.351C500.209 115.317 499.673 119.964 499.226 130.955C498.779 143.555 498.422 146.147 497.082 147.666C495.741 149.095 495.563 150.525 495.831 155.083C496.099 158.21 496.724 161.963 497.26 163.304C499.316 168.576 498.065 172.865 494.401 172.865C492.882 172.865 492.882 173.044 493.865 174.295C494.49 175.01 496.545 176.44 498.511 177.423C501.103 178.852 501.818 179.567 501.282 180.729C500.388 182.963 500.567 184.393 502.622 189.844C503.694 192.614 504.499 197.082 504.499 200.12C504.588 205.214 505.303 209.324 508.43 222.907C509.235 226.124 509.86 231.486 509.86 234.881C509.86 239.528 510.128 240.869 510.843 240.154C512.094 238.903 510.486 219.511 508.967 216.652C508.43 215.669 507.626 210.307 507.269 204.767C506.554 195.473 506.554 194.669 508.162 193.508C509.056 192.882 509.86 191.72 509.86 191.095C509.86 190.38 511.469 188.771 513.435 187.431C518.796 183.946 519.958 185.465 520.405 196.725C520.762 204.856 521.477 207.716 523.264 207.716C523.711 207.716 523.8 203.963 523.532 199.405C522.996 190.469 523.979 185.108 526.749 181.712L528.447 179.567L530.234 181.801C531.753 183.589 532.29 183.857 533.183 182.874C534.077 182.069 534.166 181.176 533.362 179.121C532.826 177.691 532.736 176.261 533.094 175.993C534.256 175.278 534.613 176.35 535.328 182.159C535.685 185.018 536.4 188.325 536.847 189.486C537.562 191.005 537.473 192.703 536.668 195.652C535.864 198.601 535.775 200.031 536.49 200.746C537.115 201.371 538.009 199.763 539.349 195.116C541.226 189.04 541.226 188.503 539.796 187.52C538.634 186.627 538.366 185.733 538.813 183.946C539.617 180.729 544.085 174.384 547.123 171.972C550.877 169.023 550.787 171.525 546.855 179.567C543.549 186.269 543.549 186.359 544.979 189.486C545.783 191.184 546.498 193.329 546.498 194.133C546.498 195.027 546.945 196.188 547.481 196.725C548.017 197.261 548.732 198.959 549.089 200.567C549.357 202.086 550.072 203.337 550.519 203.337C551.413 203.337 552.128 200.031 553.111 191.81C553.826 186.806 554.898 184.84 557.489 184.125C559.276 183.678 559.813 182.695 560.706 178.495C562.225 170.721 563.119 170.006 564.281 175.635C564.817 178.316 565.621 184.125 566.157 188.682C567.319 199.137 568.749 203.158 568.749 196.099C568.749 193.418 568.391 187.163 567.944 182.338C567.14 174.474 567.23 173.223 568.57 171.793C569.821 170.363 569.91 169.738 569.017 168.397C567.498 165.985 567.676 163.84 569.732 159.372C570.715 157.227 571.519 154.546 571.519 153.474C571.519 150.883 574.468 150.078 577.327 151.955C580.008 153.742 582.242 152.491 582.242 149.095C582.242 148.023 582.6 146.861 582.957 146.593C584.119 145.878 587.604 152.67 587.604 155.529C587.604 156.959 588.229 159.283 588.944 160.712C589.659 162.053 590.285 165.27 590.285 167.861C590.285 170.363 590.91 173.58 591.804 175.099C592.965 177.244 593.323 181.712 593.859 196.546C594.216 207.001 594.842 216.116 595.467 217.099C597.255 220.584 598.416 233.362 599.221 258.651C599.667 272.681 600.472 285.906 600.918 288.14C601.455 290.374 601.812 297.791 601.901 304.672C601.901 322.455 603.51 333.893 608.693 354.446C609.408 357.305 609.944 361.863 609.944 364.633C609.944 369.19 609.765 369.637 608.157 369.19C605.923 368.654 605.744 370.799 607.889 371.603C608.872 372.05 609.854 371.692 610.569 370.709C611.999 368.743 612.089 358.914 610.748 355.429C609.318 351.676 606.459 337.289 604.672 325.135C603.51 316.825 603.331 312.714 603.867 307.442C604.404 302.885 604.404 298.417 603.778 294.574C603.242 291.268 602.438 278.489 601.901 266.247C600.74 235.239 600.293 229.073 598.238 218.886C596.361 209.056 595.825 189.844 597.523 189.844C597.97 189.844 599.399 192.078 600.65 194.848C601.901 197.618 603.778 201.103 604.94 202.712C609.14 208.252 612.803 218.975 613.429 227.375C613.876 233.362 614.412 235.686 615.752 237.205C617.361 238.992 617.361 239.439 616.288 245.069C615.216 250.43 613.608 271.072 614.144 271.966C615.037 273.306 615.663 269.821 616.735 259.277C617.361 252.664 618.344 245.337 618.88 243.013C619.684 239.528 619.595 238.367 618.522 236.669C617.361 234.971 617.271 233.809 618.076 229.788C619.595 222.55 617.986 214.865 612.982 204.231C609.765 197.261 608.961 194.669 609.318 192.525C609.765 190.648 609.229 188.325 607.71 184.929C604.761 178.138 602.795 170.006 602.17 162.142C601.901 157.942 601.097 154.368 600.025 152.67C599.042 151.151 598.327 149.006 598.327 148.023C598.327 147.04 597.97 145.968 597.523 145.7C596.093 144.717 595.646 139.713 596.897 137.925C597.97 136.406 597.791 135.066 595.557 128.185C592.608 119.07 592.429 117.462 594.306 117.462C596.093 117.462 596.004 114.513 594.127 110.939C592.25 107.275 591.804 100.037 591.625 69.2072C591.536 55.7138 590.999 42.2203 590.374 39.2715C587.782 24.9738 587.604 18.2718 589.927 9.06763C590.821 5.49319 588.944 6.02936 586.263 10.2293ZM521.03 45.8841C521.298 46.3309 521.12 46.9565 520.583 47.3139C520.137 47.582 519.69 47.2245 519.69 46.5096C519.69 44.9012 520.226 44.6331 521.03 45.8841ZM581.706 120.679C583.046 124.253 581.795 133.547 579.919 133.547C579.025 133.547 578.936 133.011 579.472 131.581C579.829 130.508 579.829 128.364 579.293 126.755C577.863 122.198 580.097 116.568 581.706 120.679ZM550.519 188.057C550.251 188.503 549.626 188.95 549.089 188.95C548.643 188.95 548.285 188.503 548.285 188.057C548.285 187.52 548.911 187.163 549.715 187.163C550.43 187.163 550.787 187.52 550.519 188.057Z" fill="#7B0100"/>
<path d="M659.986 11.4803C659.539 12.7314 658.556 20.6844 657.752 29.1737C656.948 37.6629 655.875 46.2415 655.339 48.2075C654.267 52.3181 648.816 63.4881 647.476 64.2924C645.688 65.3647 643.276 71.5305 642.739 76.2666C642.114 81.2708 639.433 86.0069 639.433 81.9857C639.433 79.7517 637.914 78.4113 636.663 79.6624C636.216 80.1091 635.323 85.1133 634.608 90.743C633.893 97.6238 632.91 101.824 631.748 103.522C630.855 104.951 629.872 108.615 629.514 111.832C629.157 115.049 628.352 118.177 627.459 119.16C626.655 119.964 626.029 121.394 626.029 122.287C626.029 123.092 625.314 123.985 624.51 124.253C623.616 124.521 622.187 125.147 621.293 125.594C619.148 126.755 618.523 124.789 619.238 119.07C619.684 115.675 619.238 111.207 617.45 102.181C615.127 90.6537 615.038 89.492 616.11 82.0751C616.736 77.6964 617.719 71.888 618.433 69.2072C619.416 65.3647 619.506 64.1136 618.612 63.3987C617.987 62.8626 617.093 61.5222 616.557 60.2711L615.574 58.0371L614.948 60.0031C613.34 65.0966 612.625 61.0754 612.625 46.8671C612.625 33.8204 612.446 31.4971 611.195 31.0503C608.693 30.1566 607.8 32.3907 607.174 41.2374C606.906 46.0628 606.191 51.1564 605.566 52.5861C605.029 54.0159 604.672 56.518 604.761 58.1265C604.851 59.8243 604.493 61.6115 603.868 62.2371C603.242 62.8626 602.795 64.6498 602.795 66.2583C602.795 68.8497 602.527 69.2072 600.561 69.2072C598.953 69.2072 598.327 69.654 598.327 70.905C598.327 71.7986 598.953 72.7816 599.668 73.139C601.634 73.8539 601.276 75.4624 599.221 75.4624C596.629 75.4624 596.898 78.5006 599.668 80.2879C601.098 81.1815 601.902 82.6112 601.902 83.9516C601.902 85.7389 601.455 86.1856 599.668 86.1856C596.719 86.1856 596.808 87.8835 600.115 91.9941C602.885 95.4791 603.778 100.662 601.812 101.913C601.276 102.271 601.008 103.79 601.276 105.756C601.544 107.543 602.08 111.207 602.438 113.887C602.885 117.104 603.689 119.249 604.851 120.143C605.834 120.947 606.906 123.36 607.263 125.594C607.621 127.738 608.246 130.24 608.604 131.045C609.051 132.206 608.872 132.653 607.8 132.653C605.387 132.653 605.208 134.976 607.353 137.925C608.425 139.355 609.051 141.142 608.783 141.857C607.085 146.236 616.467 174.206 622.008 181.444C624.421 184.661 624.599 185.286 625.314 199.584C626.208 216.563 626.476 218.439 628.174 218.439C630.14 218.439 630.497 216.294 630.497 203.248C630.497 192.346 630.676 190.737 632.284 188.861L633.982 186.716L634.072 192.078C634.072 195.027 634.876 200.388 635.859 204.052C638.271 212.988 638.093 220.673 635.412 230.503C632.552 241.226 631.391 250.609 630.765 269.464C630.408 280.545 630.586 286.442 631.391 289.749C632.82 295.915 634.34 295.825 633.446 289.659C633.089 287.157 632.731 277.774 632.82 268.928C632.91 251.413 634.25 241.315 638.093 229.43C640.684 221.388 640.774 217.456 638.986 206.375C637.199 195.205 637.199 193.508 639.701 192.614C643.008 191.363 644.169 193.15 643.544 198.333C643.008 203.158 644.527 206.822 647.118 206.822C648.101 206.822 648.369 205.929 648.19 203.427C647.922 200.567 648.19 200.12 649.978 199.852C652.212 199.495 652.301 199.495 650.961 193.418C649.441 186.359 651.05 178.942 655.071 174.563C657.663 171.704 658.199 170.363 658.199 167.057C658.199 163.304 659.182 161.874 660.433 163.929C660.701 164.376 661.952 164.823 663.114 164.823C664.722 164.823 665.348 164.197 665.973 161.516C666.867 157.674 670.799 154.725 672.496 156.423C674.194 158.121 675.177 164.019 675.177 173.312C675.177 180.014 675.535 182.784 676.607 184.303C678.484 186.984 680.181 185.823 678.394 183.052C677.054 181.176 676.339 175.546 677.411 175.546C677.59 175.546 679.467 176.172 681.433 176.976C684.381 178.138 685.543 179.389 687.42 183.052C688.671 185.554 690.19 188.235 690.905 188.95C691.53 189.754 692.513 192.256 693.049 194.58C693.586 196.993 695.283 201.371 696.892 204.41L699.751 209.95L699.93 247.034C700.02 267.409 700.556 289.749 701.092 296.629C701.628 303.51 702.432 319.148 702.968 331.48C703.415 343.722 704.219 358.199 704.666 363.65C705.113 369.011 705.47 377.947 705.47 383.398C705.56 388.849 706.007 395.551 706.632 398.143C707.168 400.824 707.704 404.309 707.704 406.007C707.794 409.76 710.028 411.011 710.028 407.258C710.028 405.917 709.581 402.968 709.045 400.824C707.883 395.641 704.577 340.684 702.879 297.076C701.628 264.907 701.807 239.528 703.415 230.503C706.811 210.307 707.347 206.465 707.347 200.031C707.347 191.452 706.275 187.163 702.7 181.623C700.466 178.138 699.841 175.814 699.037 168.397C698.232 160.802 697.785 159.461 696.445 159.461C694.211 159.461 693.675 156.155 694.747 149.989C696.177 142.393 695.998 140.874 693.854 140.517C690.637 140.07 689.832 137.836 691.173 132.653C692.335 128.185 692.335 128.006 690.011 125.594C687.956 123.449 687.777 122.734 688.492 120.679C689.207 118.892 689.028 117.372 687.688 113.798C686.705 111.385 685.901 107.99 685.901 106.292C685.901 104.594 685.364 101.377 684.828 99.0536C683.845 95.5685 683.935 94.6749 685.275 92.2621C687.152 89.0452 687.241 86.1856 685.543 82.1644C684.828 80.4666 683.756 76.0879 683.309 72.6029C682.773 69.0284 681.79 64.4711 681.075 62.5051C680.271 60.3605 679.735 55.535 679.645 50.1734C679.645 42.3097 679.467 41.5054 677.947 41.5054C676.071 41.5054 675.177 43.2033 675.177 46.5096C675.177 48.5649 673.479 52.3181 668.922 60.1818C667.492 62.7732 667.314 64.2924 667.76 70.1901L668.297 77.1602L665.705 77.6964C664.275 78.0539 662.577 78.4113 662.041 78.6794C660.075 79.2155 660.79 81.6283 663.56 83.6836C666.599 85.9176 667.046 88.8665 664.901 93.96C664.007 95.9259 663.56 100.037 663.56 105.13V113.083L660.433 114.424C656.858 115.853 656.144 118.713 659.182 119.517C660.79 119.964 661.058 120.5 660.522 122.823C660.254 124.432 659.271 126.755 658.288 128.006C657.395 129.347 656.501 132.474 656.233 134.976C655.875 138.462 655.071 140.517 652.569 143.734C650.335 146.683 648.995 149.81 647.922 154.368C647.118 157.942 645.688 162.589 644.705 164.733C643.722 166.967 643.008 170.631 643.008 173.491C643.008 176.172 642.293 179.746 641.488 181.623L639.969 184.929L639.612 180.014C639.522 177.333 638.808 173.848 638.093 172.24C636.574 169.023 636.306 162.946 637.735 161.516C638.361 160.891 638.361 158.657 637.735 153.831C637.11 149.363 637.11 144.895 637.646 140.517C638.093 136.942 638.54 131.223 638.54 127.917C638.54 124.164 639.076 120.589 640.059 118.534C640.952 116.747 641.846 113.619 642.114 111.653L642.65 108.079L644.169 111.296C644.973 113.083 645.867 116.568 646.225 119.16C647.207 127.023 648.28 122.377 647.744 112.458C647.118 100.93 649.263 88.509 652.927 83.058C654.178 81.0921 656.858 76.4454 658.735 72.7816C661.863 66.5264 662.131 65.5434 662.22 57.5903C662.309 52.9436 662.667 48.3862 663.024 47.4926C663.471 46.599 663.292 41.6841 662.756 36.68C662.131 31.3184 661.952 23.8121 662.309 18.9866C662.756 12.9995 662.577 10.3186 661.863 9.87186C661.326 9.5144 660.522 10.1399 659.986 11.4803ZM676.071 116.926C676.071 117.194 675.713 117.641 675.177 117.909C674.73 118.177 674.284 117.998 674.284 117.551C674.284 117.015 674.73 116.568 675.177 116.568C675.713 116.568 676.071 116.747 676.071 116.926ZM676.25 128.453C675.982 132.028 676.25 133.457 677.322 134.351C679.735 136.406 679.02 138.908 675.624 140.338C673.926 140.964 671.603 141.589 670.352 141.589C668.207 141.589 668.207 141.589 669.548 137.747C670.441 135.155 670.709 132.385 670.262 128.811L669.726 123.717H673.211H676.696L676.25 128.453ZM622.455 130.955C623.348 132.564 623.259 132.742 621.829 132.474C620.936 132.296 620.131 131.491 619.953 130.598C619.506 128.453 621.293 128.721 622.455 130.955ZM681.79 159.729C685.186 162.231 681.433 173.759 677.947 171.614C676.518 170.631 676.339 165.448 677.679 161.963C679.199 158.21 679.467 158.031 681.79 159.729Z" fill="#7B0100"/>
<path d="M102.735 14.2505C101.574 16.0377 101.216 19.1653 100.948 28.8162C100.859 35.5182 101.127 42.2203 101.574 43.7394C101.931 45.1692 102.825 50.6202 103.361 55.8031C104.88 70.4582 104.969 69.3859 101.752 70.2794C98.2673 71.1731 98.2673 71.4412 100.591 75.0156C102.467 77.8751 102.914 81.2708 101.484 82.1644C100.948 82.5219 99.9651 84.2197 99.2502 85.9175C97.9098 89.0452 97.9098 89.2239 100.233 91.726C103.718 95.211 104.344 102.717 101.574 106.47C99.8758 108.794 99.697 109.419 100.68 111.475C101.574 113.441 101.484 114.602 100.591 117.551C99.429 120.857 99.5183 121.394 100.859 122.377C102.825 123.806 102.914 132.296 101.037 135.155C99.9651 136.585 99.8758 137.479 100.591 138.908C101.127 139.891 101.931 140.695 102.378 140.695C103.897 140.695 105.327 144.359 104.254 145.432C102.646 147.04 103.182 150.883 105.595 155.529C107.382 158.836 108.186 161.963 108.812 168.308C109.169 172.865 109.973 177.423 110.51 178.316C111.135 179.657 110.956 180.64 109.437 182.606C106.935 186.001 107.561 188.771 112.297 194.848C114.173 197.35 115.782 199.852 115.782 200.388C115.782 200.924 116.765 202.086 118.016 202.89C119.267 203.695 120.25 204.856 120.25 205.482C120.25 206.107 121.054 207.626 122.037 208.877C123.02 210.129 123.824 211.826 123.824 212.631C123.824 213.435 124.271 213.792 124.807 213.435C125.522 213.077 125.612 211.111 125.254 207.626C124.807 203.695 124.986 201.729 126.058 199.673C127.309 197.261 127.309 196.635 126.148 194.044C124.45 190.291 123.109 183.052 123.199 179.12C123.378 176.44 123.02 175.903 121.322 175.725C120.161 175.546 118.999 174.742 118.82 173.938C118.552 173.133 117.927 171.704 117.48 170.81C116.854 169.648 116.944 167.772 117.658 164.733C118.552 161.427 118.552 159.908 117.748 158.121C117.122 156.87 116.676 155.083 116.676 154.1C116.676 153.206 116.229 152.312 115.603 152.134C115.067 151.955 114.888 151.24 115.246 150.704C116.139 149.274 120.697 149.363 121.858 150.704C123.109 152.312 126.505 162.589 126.505 164.823C126.505 167.682 129.365 173.669 129.812 171.704C130.08 170.899 130.526 170.184 130.973 170.184C132.046 170.184 132.76 172.597 132.76 176.708C132.76 178.763 133.386 181.265 134.101 182.159C134.816 183.142 135.441 185.197 135.441 186.627C135.441 188.146 136.245 191.988 137.318 195.205C138.301 198.422 139.373 204.141 139.641 207.895L140.177 214.865H134.637C127.846 214.865 127.22 215.937 130.705 221.209C133.118 224.873 133.207 225.32 132.939 235.149C132.76 241.226 132.939 245.247 133.475 245.247C134.28 245.247 134.816 240.243 135.709 227.554C135.799 226.035 136.335 224.784 136.782 224.962C138.033 225.409 138.926 232.647 138.837 241.941C138.748 248.554 139.016 249.983 140.356 250.966C141.518 251.86 142.054 253.379 142.054 256.775C142.143 259.277 142.59 261.332 143.037 261.332C144.556 261.332 144.556 252.575 143.126 249.536C141.071 245.426 141.339 244.532 144.467 244.8C149.65 245.158 149.56 244.264 148.13 276.523C147.594 287.604 146.701 306.548 146.075 318.612C145.45 330.676 145.271 341.578 145.628 342.918C146.522 346.671 148.041 345.867 147.416 341.935C147.147 340.059 147.326 332.642 147.862 325.582C148.488 318.433 149.292 301.008 149.739 286.8C150.186 271.072 150.901 260.707 151.437 260.17C152.152 259.455 152.42 259.545 152.42 260.349C152.42 260.975 153.581 262.941 155.011 264.728C160.373 271.43 161.803 283.315 159.747 303.331C157.513 324.421 158.228 358.824 160.998 364.097C162.16 366.331 162.16 366.241 162.249 362.846C162.249 360.969 161.624 355.339 160.82 350.335C159.569 342.65 159.479 339.344 160.373 327.906C160.909 320.489 161.624 310.57 161.892 305.834C162.16 301.008 162.786 296.898 163.232 296.54C163.679 296.272 164.037 294.306 164.037 292.251C164.037 289.749 164.662 287.604 165.824 286.085C166.807 284.834 167.611 283.225 167.611 282.421C167.611 281.617 166.002 276.97 164.037 271.966L160.373 262.851L162.339 258.294C164.037 254.005 164.126 253.111 163.143 246.141C160.998 230.503 160.551 225.767 160.551 216.205C160.462 207.269 160.641 205.929 162.786 201.997C165.109 197.707 165.109 197.529 163.59 194.937C162.249 192.614 162.071 190.916 162.607 181.891C162.964 176.172 163.858 169.023 164.751 165.895C166.002 160.98 166.092 160.176 164.841 159.014C163.679 157.853 163.322 157.853 161.534 159.014C159.569 160.444 155.994 170.274 155.994 174.384C155.994 175.546 155.279 177.78 154.475 179.389C153.671 180.997 152.867 184.035 152.777 186.269C152.688 188.503 152.241 193.329 151.794 196.993C151.079 202.89 150.901 203.426 150.007 201.461C149.471 200.21 148.756 197.439 148.398 195.205C148.13 192.971 146.433 185.554 144.645 178.674C142.501 170.274 141.428 163.75 141.339 158.836C141.25 154.814 140.892 151.24 140.535 150.883C139.462 149.81 139.82 145.253 141.25 141.857C142.947 137.747 142.947 133.636 141.16 131.67C139.909 130.24 140.088 129.794 144.288 125.772L148.845 121.394L148.667 114.334C148.488 108.973 148.845 106.381 150.096 103.879C151.705 100.483 151.437 98.6961 149.203 98.6961C147.326 98.6961 147.684 97.5344 150.096 95.211C152.152 93.2451 152.241 92.8877 151.705 83.8622L151.258 74.5688L144.913 68.0454C139.373 62.3264 138.033 61.3434 134.637 60.8966C129.454 60.2711 126.684 58.0371 123.199 51.9606C121.68 49.2798 118.999 45.0798 117.212 42.7564C114.442 39.182 113.995 37.931 113.995 33.8204C113.995 28.3694 112.833 27.2077 110.063 29.7992C106.935 32.7481 105.952 30.7822 105.952 21.3099C105.952 16.7526 105.595 12.8207 105.059 12.4633C104.612 12.1952 103.54 12.9994 102.735 14.2505ZM120.161 83.9516C120.875 87.0792 120.965 86.7218 121.054 80.5559C121.054 76.8028 121.501 73.6752 121.948 73.6752C123.646 73.6752 125.612 83.3261 125.612 91.2792C125.612 103.7 123.914 122.734 122.573 125.325C120.965 128.453 117.748 131.313 116.854 130.508C116.497 130.151 116.229 122.645 116.229 113.798C116.229 102.449 115.871 97.5344 115.067 96.7302C113.548 95.211 113.727 92.3515 115.424 89.9388C116.139 88.8664 116.676 86.6324 116.586 85.0239C116.407 83.5048 116.676 79.7517 117.122 76.8028L117.927 71.4412L118.641 75.9092C119.088 78.3219 119.714 81.9857 120.161 83.9516ZM135.531 78.9474C137.497 80.4666 139.552 81.7176 139.999 81.8963C140.535 82.075 140.356 83.3261 139.552 84.8452C138.748 86.3643 138.122 88.4196 138.122 89.4026C138.122 90.4749 137.497 94.4961 136.692 98.3386C135.352 104.683 135.352 105.487 136.692 108.258C139.016 113.083 138.569 115.049 134.011 119.249C130.884 122.109 129.633 122.734 128.918 121.93C128.114 121.215 127.935 114.87 128.024 99.7684C128.203 80.9134 128.382 78.5006 129.812 77.5177C131.777 76.0879 131.331 75.9092 135.531 78.9474ZM131.867 163.393C131.867 165.716 129.722 168.129 128.829 166.699C128.114 165.538 129.812 161.248 130.973 161.248C131.42 161.248 131.867 162.231 131.867 163.393Z" fill="#7B0100"/>
<path d="M205.5 60.003C204.606 71.9773 204.874 96.9089 205.947 99.7684C206.751 101.645 206.84 101.556 207.019 98.6961C208.359 80.2879 208.449 52.4968 207.287 51.3351C206.572 50.6202 206.125 52.9436 205.5 60.003Z" fill="#7B0100"/>
<path d="M204.248 117.372C204.248 119.338 204.695 121.215 205.142 121.483C205.678 121.84 206.035 120.411 206.035 117.998C206.035 115.764 205.678 113.887 205.142 113.887C204.695 113.887 204.248 115.496 204.248 117.372Z" fill="#7B0100"/>
<path d="M645.331 126.934C644.438 129.168 644.706 133.547 645.689 133.547C646.225 133.547 646.582 131.76 646.582 129.526C646.582 125.326 646.225 124.611 645.331 126.934Z" fill="#7B0100"/>
<path d="M204.248 130.955C204.248 131.938 204.695 132.474 205.142 132.206C205.678 131.938 206.035 131.045 206.035 130.33C206.035 129.615 205.678 129.079 205.142 129.079C204.695 129.079 204.248 129.883 204.248 130.955Z" fill="#7B0100"/>
<path d="M470.542 130.687C470.542 131.134 471.168 131.849 471.972 132.117C472.865 132.474 473.223 132.206 473.044 131.581C472.597 130.24 470.542 129.525 470.542 130.687Z" fill="#7B0100"/>
<path d="M643.276 140.785C643.634 141.947 643.902 143.198 643.902 143.555C643.902 144.002 644.348 144.27 644.885 144.27C646.225 144.27 645.421 139.534 643.991 139.087C643.097 138.73 642.919 139.176 643.276 140.785Z" fill="#7B0100"/>
<path d="M578.847 171.972C578.847 185.108 579.115 189.397 579.651 187.163C580.813 182.874 580.902 158.657 579.74 155.887C579.025 154.278 578.757 158.478 578.847 171.972Z" fill="#7B0100"/>
<path d="M663.203 173.938C662.756 179.21 662.846 180.461 664.007 181.086C664.722 181.533 665.348 183.142 665.348 184.661C665.348 186.627 665.616 187.252 666.242 186.627C666.867 186.001 667.135 182.069 666.956 176.797C666.778 169.559 666.42 167.95 665.259 167.682C664.097 167.504 663.739 168.665 663.203 173.938ZM666.242 176.797C666.242 177.512 665.884 178.406 665.348 178.674C664.901 178.942 664.454 178.406 664.454 177.423C664.454 176.35 664.901 175.546 665.348 175.546C665.884 175.546 666.242 176.082 666.242 176.797Z" fill="#7B0100"/>
<path d="M409.867 171.882C409.778 174.027 410.046 174.742 410.672 174.116C411.297 173.491 411.297 172.418 410.761 170.989C409.957 168.933 409.867 169.023 409.867 171.882Z" fill="#7B0100"/>
<path d="M410.849 181.98C409.33 183.499 409.509 186.269 411.118 186.895C412.905 187.52 412.994 187.431 413.62 183.767C414.245 180.729 412.905 179.925 410.849 181.98Z" fill="#7B0100"/>
<path d="M424.968 186.537C424.968 191.184 426.04 197.886 426.755 197.886C427.827 197.886 428.274 194.222 427.738 189.04C427.112 183.499 424.968 181.533 424.968 186.537Z" fill="#7B0100"/>
<path d="M291.821 188.414C291.821 190.291 293.698 191.184 294.502 189.754C294.949 189.129 295.038 188.235 294.86 187.878C294.055 186.627 291.821 187.074 291.821 188.414Z" fill="#7B0100"/>
<path d="M51.4414 200.656C51.4414 201.103 51.8882 201.282 52.335 201.014C52.8712 200.746 53.2286 200.299 53.2286 200.031C53.2286 199.852 52.8712 199.673 52.335 199.673C51.8882 199.673 51.4414 200.12 51.4414 200.656Z" fill="#7B0100"/>
<path d="M578.222 202.354C577.954 202.801 578.311 204.141 579.026 205.214C580.456 207.18 580.456 207.18 580.456 204.32C580.456 201.55 579.384 200.567 578.222 202.354Z" fill="#7B0100"/>
<path d="M665.973 201.997C665.616 202.354 665.348 203.248 665.348 204.052C665.348 205.035 665.616 205.124 666.331 204.41C666.867 203.873 667.224 202.98 666.956 202.354C666.777 201.818 666.331 201.639 665.973 201.997Z" fill="#7B0100"/>
<path d="M67.9737 211.469C67.6162 212.72 67.5269 215.133 67.7056 216.92C68.063 221.567 70.4757 219.869 70.4757 214.865C70.4757 210.397 68.7779 208.163 67.9737 211.469Z" fill="#7B0100"/>
<path d="M566.784 227.554C567.052 236.579 567.588 244.264 568.035 244.711C569.465 246.32 570.001 240.332 569.375 229.252C568.66 216.384 568.035 211.29 566.963 211.29C566.605 211.29 566.516 218.618 566.784 227.554Z" fill="#7B0100"/>
<path d="M535.954 221.567C535.954 225.945 536.222 230.413 536.669 231.396C537.652 233.809 537.741 222.014 536.758 217.099C536.133 214.15 535.954 214.954 535.954 221.567Z" fill="#7B0100"/>
<path d="M123.199 216.92C122.573 217.635 122.663 220.852 123.199 226.035C123.735 230.413 124.093 235.775 124.093 237.83C124.093 239.975 124.361 241.405 124.807 241.137C125.88 240.511 125.88 216.92 124.807 216.294C124.361 216.026 123.646 216.294 123.199 216.92Z" fill="#7B0100"/>
<path d="M663.293 217.546C662.31 221.12 662.578 223.533 664.008 224.158C665.437 224.694 665.616 222.818 664.544 217.992L663.918 215.312L663.293 217.546Z" fill="#7B0100"/>
<path d="M549 222.46C548.732 228.894 548.911 230.324 550.162 229.52C551.234 228.894 551.234 216.652 550.162 216.652C549.715 216.652 549.179 219.243 549 222.46Z" fill="#7B0100"/>
<path d="M440.159 221.299C440.249 225.856 441.946 236.49 442.84 237.92C443.555 239.081 443.734 237.562 443.287 232.111C442.661 223.175 441.946 219.333 440.963 219.333C440.517 219.333 440.159 220.226 440.159 221.299Z" fill="#7B0100"/>
<path d="M20.8808 224.962C20.6127 226.66 20.702 227.196 21.2382 226.66C21.7744 226.124 21.9531 225.052 21.7744 224.158C21.5063 222.907 21.3276 223.086 20.8808 224.962Z" fill="#7B0100"/>
<path d="M412.458 227.911C412.458 228.626 412.905 228.984 413.352 228.716C413.888 228.358 414.066 227.733 413.798 227.286C412.994 226.035 412.458 226.303 412.458 227.911Z" fill="#7B0100"/>
<path d="M20.4346 234.077C20.4346 237.026 20.6133 238.098 20.792 236.49C20.9707 234.881 20.9707 232.469 20.792 231.128C20.6133 229.788 20.4346 231.128 20.4346 234.077Z" fill="#7B0100"/>
<path d="M50.2803 233.362C50.0122 233.809 49.6547 236.49 49.5654 239.349C49.2973 243.013 49.5654 244.8 50.3696 244.979C51.1739 245.337 51.4419 243.728 51.4419 239.081C51.4419 233.094 51.1739 231.843 50.2803 233.362Z" fill="#7B0100"/>
<path d="M65.0245 237.652C65.0245 239.081 65.3819 241.494 65.7394 243.013C66.3649 245.605 66.4543 245.515 66.4543 242.12C66.4543 240.154 66.1862 237.741 65.7394 236.758C65.1139 235.239 64.9351 235.418 65.0245 237.652Z" fill="#7B0100"/>
<path d="M260.188 244.89C260.992 257.043 262.511 259.009 262.154 247.303C261.975 241.762 261.439 237.741 260.724 237.026C259.92 236.222 259.831 237.92 260.188 244.89Z" fill="#7B0100"/>
<path d="M412.548 240.779C412.548 243.013 412.905 246.409 413.352 248.375C414.603 254.005 416.122 267.051 416.837 278.847C417.373 287.961 417.731 290.017 419.518 292.43C420.59 294.038 421.931 295.11 422.377 294.842C423.36 294.127 422.467 284.298 420.858 279.204C420.143 276.97 418.624 268.302 417.373 259.992C416.122 251.592 414.603 243.013 413.888 240.779L412.637 236.758L412.548 240.779Z" fill="#7B0100"/>
<path d="M441.947 241.673C441.947 242.566 441.5 244.443 440.875 245.694C439.981 247.571 440.071 248.464 441.053 249.983C441.947 251.324 442.394 254.898 442.483 261.332C442.573 266.515 443.109 273.128 443.645 276.077C444.181 278.936 444.628 284.298 444.628 287.962C444.628 292.787 444.896 294.485 445.79 294.127C446.594 293.859 446.773 291.536 446.594 285.37C446.147 271.43 444.628 251.502 443.734 249.358C443.288 248.196 443.198 245.605 443.466 243.549C443.824 241.137 443.645 239.886 442.93 239.886C442.394 239.886 441.947 240.69 441.947 241.673Z" fill="#7B0100"/>
<path d="M20.3447 244.8C20.3447 246.23 20.5234 246.766 20.7915 245.873C20.9702 245.068 20.9702 243.817 20.7915 243.192C20.5234 242.656 20.3447 243.281 20.3447 244.8Z" fill="#7B0100"/>
<path d="M332.212 247.928C332.212 249.179 332.391 249.626 332.659 249C332.837 248.464 332.837 247.392 332.659 246.766C332.391 246.23 332.212 246.677 332.212 247.928Z" fill="#7B0100"/>
<path d="M664.902 251.234C664.634 253.647 664.008 256.953 663.561 258.741C662.489 262.494 662.4 266.157 663.204 270.179C664.187 275.183 665.08 273.128 665.617 264.192C665.974 259.366 666.51 253.558 666.778 251.234C667.225 248.464 667.046 247.034 666.421 247.034C665.885 247.034 665.259 248.911 664.902 251.234Z" fill="#7B0100"/>
<path d="M20.2547 249.268C19.5399 252.039 18.9143 264.013 19.4505 264.013C20.6122 264.013 21.1484 260.17 20.7909 254.183C20.6122 250.966 20.4335 248.732 20.2547 249.268Z" fill="#7B0100"/>
<path d="M389.761 251.86C389.136 255.345 389.94 262.047 391.102 262.762C391.548 263.03 391.906 265.8 391.906 269.017C391.906 272.145 392.263 274.736 392.799 274.736C394.14 274.736 396.552 269.553 395.391 269.196C394.14 268.749 391.906 258.651 391.906 253.022C391.906 248.107 390.565 247.392 389.761 251.86Z" fill="#7B0100"/>
<path d="M12.123 250.698C12.123 251.145 12.5698 251.324 13.0167 251.056C13.5528 250.787 13.9103 250.341 13.9103 250.073C13.9103 249.894 13.5528 249.715 13.0167 249.715C12.5698 249.715 12.123 250.162 12.123 250.698Z" fill="#7B0100"/>
<path d="M66.4544 251.502C66.1863 252.217 65.6502 261.064 65.3821 271.162C65.114 281.259 64.4885 292.429 63.8629 296.004C63.0587 301.097 63.0587 302.795 63.8629 303.6C65.9182 305.655 66.4544 302.259 67.0799 281.528C67.7054 260.26 67.4374 249.179 66.4544 251.502Z" fill="#7B0100"/>
<path d="M331.677 251.949C330.605 253.022 330.247 255.166 330.247 260.26C330.247 264.013 330.068 270.536 329.8 274.736C329.443 280.634 329.622 281.617 330.247 279.204C331.23 275.808 333.911 251.324 333.464 250.788C333.285 250.698 332.481 251.145 331.677 251.949Z" fill="#7B0100"/>
<path d="M312.999 253.558C312.016 256.149 312.195 258.294 313.357 257.132C313.893 256.596 314.161 255.256 313.982 254.094C313.714 252.217 313.625 252.128 312.999 253.558Z" fill="#7B0100"/>
<path d="M249.553 257.221C248.66 263.298 248.749 268.302 249.732 268.928C250.983 269.643 251.966 260.081 250.983 256.239L250.179 252.843L249.553 257.221Z" fill="#7B0100"/>
<path d="M551.503 258.204C550.342 261.332 550.967 279.204 552.308 282.51C553.023 284.298 553.827 285.549 554.095 285.37C554.542 284.923 552.933 257.579 552.397 257.132C552.218 256.953 551.861 257.4 551.503 258.204Z" fill="#7B0100"/>
<path d="M260.635 259.188C260.635 260.17 260.903 260.439 261.171 259.724C261.439 259.098 261.35 258.294 261.082 258.026C260.813 257.668 260.545 258.205 260.635 259.188Z" fill="#7B0100"/>
<path d="M535.775 263.209C535.775 263.655 536.222 263.834 536.669 263.566C537.205 263.298 537.563 262.851 537.563 262.583C537.563 262.404 537.205 262.226 536.669 262.226C536.222 262.226 535.775 262.672 535.775 263.209Z" fill="#7B0100"/>
<path d="M89.8662 268.034C89.8662 269.732 90.2237 271.162 90.6705 271.162C91.8321 271.162 92.7257 268.123 92.0109 266.336C91.0279 263.834 89.8662 264.728 89.8662 268.034Z" fill="#7B0100"/>
<path d="M131.419 265.8C131.151 266.247 131.508 266.694 132.223 266.694C132.938 266.694 133.832 266.247 134.1 265.8C134.368 265.264 134.011 264.907 133.296 264.907C132.581 264.907 131.687 265.264 131.419 265.8Z" fill="#7B0100"/>
<path d="M19.3623 269.911C19.3623 270.894 19.6303 271.162 19.8984 270.447C20.1665 269.821 20.0771 269.017 19.8091 268.749C19.541 268.392 19.2729 268.928 19.3623 269.911Z" fill="#7B0100"/>
<path d="M191.737 270.179C191.737 271.251 192.184 272.055 192.631 272.055C193.167 272.055 193.525 271.519 193.525 270.804C193.525 270.089 193.167 269.196 192.631 268.928C192.184 268.66 191.737 269.196 191.737 270.179Z" fill="#7B0100"/>
<path d="M577.239 271.787C577.507 273.664 577.954 277.864 578.222 281.259C578.579 284.566 579.205 287.068 579.652 286.8C580.724 286.085 580.724 273.664 579.562 270.804C578.222 267.23 576.613 267.945 577.239 271.787Z" fill="#7B0100"/>
<path d="M488.414 271.162C488.414 272.145 488.861 272.949 489.308 272.949C489.844 272.949 490.201 272.145 490.201 271.162C490.201 270.179 489.844 269.375 489.308 269.375C488.861 269.375 488.414 270.179 488.414 271.162Z" fill="#7B0100"/>
<path d="M537.741 270.447C537.116 271.072 536.669 272.592 536.669 273.843C536.669 277.953 540.601 288.14 541.762 286.979C542.031 286.621 539.439 270.09 538.992 269.643C538.903 269.464 538.277 269.911 537.741 270.447Z" fill="#7B0100"/>
<path d="M90.1347 277.059C89.5092 278.668 91.2071 282.779 92.5475 282.779C92.9943 282.779 93.4411 281.796 93.4411 280.634C93.4411 276.255 91.3858 273.932 90.1347 277.059Z" fill="#7B0100"/>
<path d="M664.097 277.328C663.203 278.668 664.365 288.855 665.437 289.57C665.884 289.838 666.241 287.693 666.152 284.834C666.063 278.936 665.169 275.54 664.097 277.328Z" fill="#7B0100"/>
<path d="M487.967 281.438C486.18 287.515 487.521 314.77 490.648 339.523C491.721 347.833 493.776 370.709 493.776 374.552C493.776 375.177 494.223 375.714 494.848 375.714C496.01 375.714 495.295 347.833 493.865 340.327C492.078 331.033 490.023 309.587 489.397 294.396C488.95 283.136 488.593 279.472 487.967 281.438Z" fill="#7B0100"/>
<path d="M18.7357 285.013C18.9144 287.425 19.54 294.217 19.9868 300.025C20.5229 305.834 21.1484 310.838 21.4165 311.195C22.2208 311.999 21.9527 297.255 21.0591 290.106C20.0761 282.242 18.1102 278.042 18.7357 285.013Z" fill="#7B0100"/>
<path d="M394.139 283.672C394.407 284.119 395.301 284.566 396.016 284.566C396.731 284.566 397.267 284.119 397.267 283.672C397.267 283.136 396.462 282.779 395.39 282.779C394.407 282.779 393.871 283.136 394.139 283.672Z" fill="#7B0100"/>
<path d="M554.005 298.417C554.631 309.676 556.954 323.974 558.473 325.404C558.92 325.761 559.009 324.867 558.741 323.438C558.384 321.919 557.49 313.519 556.686 304.672C554.899 285.37 553.112 281.26 554.005 298.417Z" fill="#7B0100"/>
<path d="M260.546 289.928C260.01 290.91 259.92 291.715 260.367 291.715C261.261 291.715 263.227 289.838 263.227 288.855C263.227 287.425 261.529 288.14 260.546 289.928Z" fill="#7B0100"/>
<path d="M567.588 292.787C567.856 293.949 568.66 296.004 569.286 297.523L570.447 300.204L570.537 297.791C570.626 295.021 568.928 290.821 567.766 290.821C567.32 290.821 567.23 291.715 567.588 292.787Z" fill="#7B0100"/>
<path d="M664.454 295.2C664.454 297.612 664.901 299.936 665.348 300.204C665.884 300.561 666.241 299.042 666.241 296.272C666.241 293.859 665.884 291.536 665.348 291.268C664.812 290.91 664.454 292.43 664.454 295.2Z" fill="#7B0100"/>
<path d="M512.899 294.932C512.542 296.183 512.72 297.612 513.346 298.238C514.061 298.953 514.329 298.327 514.329 295.915C514.329 292.072 513.703 291.625 512.899 294.932Z" fill="#7B0100"/>
<path d="M259.384 300.74C259.026 304.851 258.758 312.625 258.758 317.897C258.758 323.259 258.311 329.335 257.775 331.569C256.971 334.608 256.971 335.769 257.864 336.842C258.49 337.557 259.294 338.182 259.652 338.182C260.545 338.182 261.439 297.255 260.635 295.021C260.188 293.77 259.741 295.736 259.384 300.74Z" fill="#7B0100"/>
<path d="M326.94 302.885C326.94 304.851 327.119 305.565 327.298 304.404C327.476 303.331 327.476 301.723 327.298 300.829C327.03 300.025 326.851 300.919 326.94 302.885Z" fill="#7B0100"/>
<path d="M420.143 302.974C421.305 309.319 422.288 310.391 422.02 305.208C421.931 302.08 421.394 300.204 420.68 299.936C419.786 299.668 419.607 300.383 420.143 302.974Z" fill="#7B0100"/>
<path d="M444.628 301.902C444.628 302.617 445.432 303.689 446.504 304.225C448.113 305.119 448.292 305.029 448.024 303.153C447.756 300.829 444.628 299.668 444.628 301.902Z" fill="#7B0100"/>
<path d="M512.811 309.14C512.811 313.072 512.989 314.591 513.168 312.446C513.347 310.391 513.347 307.174 513.168 305.297C512.989 303.51 512.811 305.208 512.811 309.14Z" fill="#7B0100"/>
<path d="M664.454 306.995C664.454 307.442 664.901 307.621 665.348 307.353C665.884 307.085 666.241 306.638 666.241 306.37C666.241 306.191 665.884 306.012 665.348 306.012C664.901 306.012 664.454 306.459 664.454 306.995Z" fill="#7B0100"/>
<path d="M664.454 310.57C664.454 311.017 664.901 311.195 665.348 310.927C665.884 310.659 666.241 310.212 666.241 309.944C666.241 309.765 665.884 309.587 665.348 309.587C664.901 309.587 664.454 310.034 664.454 310.57Z" fill="#7B0100"/>
<path d="M665.438 316.289C665.348 323.259 666.421 332.82 667.314 332.82C668.208 332.82 667.672 324.152 666.242 315.842L665.527 311.821L665.438 316.289Z" fill="#7B0100"/>
<path d="M20.2558 315.485C20.2558 316.467 20.5239 316.736 20.792 316.021C21.0601 315.395 20.9707 314.591 20.7026 314.323C20.4345 313.965 20.1664 314.502 20.2558 315.485Z" fill="#7B0100"/>
<path d="M631.48 323.616C632.016 325.046 632.463 329.514 632.374 333.625C632.195 343.008 632.91 347.118 634.697 347.118C635.68 347.118 635.859 346.582 635.412 345.063C635.054 343.991 634.697 338.808 634.608 333.625C634.518 327.101 634.161 323.706 633.267 322.723C631.391 320.399 630.408 320.936 631.48 323.616Z" fill="#7B0100"/>
<path d="M615.485 324.867C615.663 325.493 616.378 326.208 617.004 326.386C617.719 326.655 618.076 326.297 617.808 325.582C617.629 324.957 616.914 324.242 616.289 324.063C615.574 323.795 615.216 324.152 615.485 324.867Z" fill="#7B0100"/>
<path d="M475.993 328.352C475.993 330.05 476.261 332.105 476.797 332.82C478.317 335.233 478.763 331.569 477.334 328.263L476.083 325.225L475.993 328.352Z" fill="#7B0100"/>
<path d="M189.683 332.106C189.415 336.127 189.593 338.093 190.487 338.986C191.47 340.148 191.738 340.059 192.274 338.718C193.078 336.663 192.185 328.442 191.112 327.369C190.487 326.744 190.04 328.263 189.683 332.106Z" fill="#7B0100"/>
<path d="M558.741 332.463C558.383 332.82 558.115 333.714 558.115 334.518C558.115 335.501 558.383 335.591 559.098 334.876C559.634 334.34 559.992 333.446 559.724 332.82C559.545 332.284 559.098 332.106 558.741 332.463Z" fill="#7B0100"/>
<path d="M666.868 337.914C666.6 339.791 666.064 344.884 665.796 349.352C665.349 355.786 665.438 357.037 666.332 355.697C666.868 354.803 667.583 349.62 667.851 344.348C668.298 334.608 667.851 331.659 666.868 337.914Z" fill="#7B0100"/>
<path d="M513.436 341.042C513.525 341.667 514.061 343.186 514.776 344.437C516.474 347.386 516.474 354.446 514.776 358.467C513.793 360.79 513.704 361.952 514.419 362.846C514.955 363.471 515.759 368.565 516.206 374.105C516.742 379.645 517.457 385.633 517.904 387.33C518.44 389.028 518.797 391.888 518.797 393.496C518.797 395.82 519.065 396.356 519.78 395.641C520.852 394.569 520.674 392.603 518.797 377.054C518.172 371.335 517.993 363.829 518.35 356.233C518.976 344.616 518.887 344.169 516.921 342.114C514.687 339.791 513.436 339.344 513.436 341.042Z" fill="#7B0100"/>
<path d="M423.449 344.08C423.181 344.884 423.449 347.476 424.075 349.71C424.7 351.944 425.415 355.071 425.683 356.68C426.041 359.718 428.007 362.131 428.9 360.701C429.168 360.165 428.811 358.109 428.096 356.144C427.381 354.088 426.577 350.424 426.219 347.922C425.594 343.186 424.432 341.578 423.449 344.08Z" fill="#7B0100"/>
<path d="M21.0586 353.731C21.0586 357.931 21.5054 361.594 21.9522 361.863C22.4884 362.22 22.8458 359.45 22.8458 354.356C22.8458 349.531 22.4884 346.224 21.9522 346.224C21.416 346.224 21.0586 349.352 21.0586 353.731Z" fill="#7B0100"/>
<path d="M557.311 350.425C557.401 353.91 557.49 354.267 558.116 352.48C559.188 349.263 559.188 346.225 558.116 346.225C557.669 346.225 557.222 348.101 557.311 350.425Z" fill="#7B0100"/>
<path d="M146.164 351.05C146.164 352.748 146.611 354.446 147.058 354.714C147.594 355.071 147.951 353.82 147.951 351.675C147.951 349.62 147.594 348.012 147.058 348.012C146.611 348.012 146.164 349.352 146.164 351.05Z" fill="#7B0100"/>
<path d="M557.311 356.59C557.311 357.573 557.58 357.841 557.848 357.127C558.116 356.501 558.026 355.697 557.758 355.429C557.49 355.071 557.222 355.607 557.311 356.59Z" fill="#7B0100"/>
<path d="M146.253 356.948C146.164 357.663 145.896 359.271 145.628 360.522C145.181 362.22 145.27 362.488 146.075 361.773C146.7 361.237 147.058 359.629 146.79 358.199C146.611 356.769 146.343 356.233 146.253 356.948Z" fill="#7B0100"/>
<path d="M664.454 360.165C664.454 360.88 664.901 361.237 665.348 360.969C665.884 360.612 666.063 359.986 665.795 359.539C664.99 358.288 664.454 358.556 664.454 360.165Z" fill="#7B0100"/>
<path d="M664.544 366.241C664.455 368.833 664.723 369.548 665.438 368.833C666.152 368.118 666.152 367.135 665.527 365.258C664.633 362.756 664.633 362.756 664.544 366.241Z" fill="#7B0100"/>
<path d="M162.248 370.441C162.248 372.675 162.874 375.267 163.588 376.25C164.75 377.858 164.839 377.679 164.929 373.837C164.929 371.603 164.303 369.011 163.588 368.029C162.427 366.42 162.337 366.599 162.248 370.441Z" fill="#7B0100"/>
<path d="M326.672 369.19C326.672 370.173 326.136 371.424 325.6 371.96C324.706 372.854 324.706 373.301 325.778 373.926C326.493 374.373 327.387 374.462 327.744 374.284C328.727 373.658 328.638 368.743 327.566 368.118C327.119 367.85 326.672 368.297 326.672 369.19Z" fill="#7B0100"/>
<path d="M664.454 378.573C664.454 387.598 666.688 411.368 667.582 412.173C667.939 412.53 668.029 409.402 667.671 405.202C667.403 401.003 666.867 391.888 666.599 384.828C665.884 370.977 664.454 366.509 664.454 378.573Z" fill="#7B0100"/>
<path d="M365.187 384.203C365.187 386.616 365.723 390.279 366.438 392.245C367.152 394.211 367.778 397.607 367.867 399.841C367.867 402.075 368.314 404.845 368.672 406.096C369.923 409.671 369.118 394.837 367.867 388.671C366.08 380.36 365.187 379.02 365.187 384.203Z" fill="#7B0100"/>
<path d="M555.881 403.862C556.596 407.168 558.115 408.956 558.115 406.453C558.115 405.47 557.489 403.862 556.685 402.879C555.345 401.271 555.345 401.271 555.881 403.862Z" fill="#7B0100"/>
<path d="M495.206 405.381C493.955 410.296 495.117 416.819 497.351 416.819C497.887 416.819 498.244 415.121 498.244 412.977C498.155 410.922 498.244 408.062 498.423 406.543C498.781 403.237 496.1 402.254 495.206 405.381Z" fill="#7B0100"/>
<path d="M667.85 415.3C667.403 416.194 667.135 421.734 667.135 427.543C667.135 438.087 667.135 438.087 670.62 444.879C674.909 453.278 676.071 452.653 672.318 444.074C669.726 438.355 669.458 436.747 669.011 425.755C668.743 419.053 668.207 414.407 667.85 415.3Z" fill="#7B0100"/>
<path d="M495.92 428.972C495.205 433.708 496.546 450.419 498.69 463.287C499.405 467.933 500.12 476.512 500.21 482.32C500.299 488.04 500.746 493.312 501.192 493.937C502.354 495.635 501.103 462.304 499.584 452.117C498.869 447.202 498.244 439.249 498.244 434.513C498.244 425.219 496.993 422.181 495.92 428.972Z" fill="#7B0100"/>
<path d="M148.219 448.006C148.845 453.278 149.738 454.887 151.883 454.083C153.045 453.636 153.045 453.01 151.347 449.257C148.577 442.734 147.594 442.376 148.219 448.006Z" fill="#7B0100"/>
<path d="M672.496 471.865C672.496 472.58 673.122 474.457 673.926 475.976C675.177 478.299 675.534 478.567 676.16 477.316C676.696 476.423 676.607 475.082 675.981 473.653C674.73 471.061 672.496 469.899 672.496 471.865Z" fill="#7B0100"/>
</svg>
